<?xml version="1.0" encoding="utf-8"?>
<!-- Generator: Adobe Illustrator 23.0.3, SVG Export Plug-In . SVG Version: 6.00 Build 0)  -->
<svg version="1.1" xmlns="http://www.w3.org/2000/svg" xmlns:xlink="http://www.w3.org/1999/xlink" x="0px" y="0px"
	 viewBox="0 0 600 600" style="enable-background:new 0 0 600 600;" xml:space="preserve">
<style type="text/css">
	.st0{fill:#FFFFFF;stroke:#202124;stroke-miterlimit:10;}
	.st1{fill:none;stroke:#202124;stroke-miterlimit:10;}
	.st2{fill:#FFFFFF;stroke:#202124;stroke-width:0.75;stroke-miterlimit:10;}
	.st3{fill:none;stroke:#202124;stroke-width:0.75;stroke-miterlimit:10;}
	.st4{fill:#202124;stroke:#202124;stroke-width:0.75;stroke-miterlimit:10;}
	.st5{fill:#B1CEFC;}
	.st6{fill:#5492ED;}
	.st7{fill:#202124;stroke:#202124;stroke-miterlimit:10;}
	.st8{fill:#202124;}
	.st9{fill:#FFFFFF;}
	.st10{opacity:0.58;fill:#FFFFFF;stroke:#202124;stroke-miterlimit:10;}
</style>
<g id="background">
	<g id="books">
		<polygon class="st0" points="80.4,513 80.4,520.4 151.2,534.3 204,520.9 202.1,511.1 		"/>
		<line class="st1" x1="151.2" y1="534.3" x2="151" y2="522.7"/>
		<line class="st1" x1="154.9" y1="530.7" x2="200.8" y2="519.1"/>
		<line class="st1" x1="157.8" y1="527" x2="179" y2="522.1"/>
		<line class="st1" x1="172.8" y1="521.3" x2="173.1" y2="521.3"/>
		<line class="st1" x1="172.8" y1="521.3" x2="196.6" y2="515.9"/>
		<path class="st2" d="M146.8,525.1c19-4.1,38.1-8.2,57.1-12.3c-0.2-4.6-0.4-9.2-0.7-13.8c-19,3.4-37.9,6.8-56.9,10.1
			C146.6,514.5,146.7,519.8,146.8,525.1z"/>
		<path class="st2" d="M147.7,499"/>
		<path class="st2" d="M147.7,499c0.3,3.8,0.5,7.7,0.8,11.5c17.4-3.3,34.9-6.6,52.3-9.9c-0.1-2.5-0.3-5.1-0.4-7.6
			C182.8,495,165.3,497,147.7,499z"/>
		<line class="st3" x1="152.8" y1="520.7" x2="200" y2="511.1"/>
		<line class="st3" x1="149.2" y1="518.2" x2="181.8" y2="512.1"/>
		<line class="st3" x1="167.9" y1="512.1" x2="198.7" y2="506.2"/>
		<line class="st3" x1="154.2" y1="507.1" x2="196.4" y2="498.9"/>
		<line class="st4" x1="171.6" y1="501.8" x2="198" y2="496.8"/>
		<path class="st5" d="M85,498.9c-0.3,5.2-0.5,10.4-0.8,15.6c21.6,4.2,43.3,8.4,64.9,12.5c-0.3-5.8-0.5-11.6-0.8-17.5
			C127.3,506,106.1,502.5,85,498.9z"/>
		<path class="st6" d="M80.7,488.1c-0.1,3.5-0.2,7-0.3,10.5c23.4,4.2,46.9,8.4,70.3,12.6c-0.1-2.8-0.2-5.6-0.3-8.5
			c17.2-3.3,34.4-6.7,51.6-10c-21.7-3.4-43.4-6.8-65.2-10.3C118.2,484.3,99.4,486.2,80.7,488.1z"/>
		<path class="st7" d="M119.7,457.6c1.3,10.8,2.6,21.6,3.9,32.4c5.2,0,10.4,0,15.6,0c1.2-10.5,2.4-21,3.6-31.5
			C135.1,458.2,127.4,457.9,119.7,457.6z"/>
		<rect x="117.7" y="455" class="st0" width="27.4" height="4.2"/>
		<rect x="124.1" y="450" class="st0" width="14.5" height="5.5"/>
	</g>
	<g id="papers">
		<path class="st0" d="M390.1,540.7c0.9,2.6,73.6,37.1,73.6,37.1l57.1-31.3l-67.5-29.3L390.1,540.7z"/>
		<path class="st0" d="M398.9,522.7c1.8,2,60,32.5,60,32.5l58.7-28.1l-58.7-27.9L398.9,522.7z"/>
		<polygon class="st0" points="374.8,527.2 421.7,550.1 470.1,524.5 428.1,501.8 		"/>
		<line class="st1" x1="428.1" y1="539.7" x2="446.8" y2="530.1"/>
		<line class="st1" x1="412.5" y1="538.5" x2="447.1" y2="522"/>
		<line class="st1" x1="405.9" y1="534.9" x2="443.2" y2="517.3"/>
		<line class="st1" x1="392.3" y1="532.1" x2="435.1" y2="513.1"/>
		<line class="st1" x1="472.4" y1="542.4" x2="499.2" y2="530.1"/>
		<line class="st1" x1="455.5" y1="544.5" x2="498" y2="522.6"/>
		<line class="st1" x1="453.3" y1="538.5" x2="488.6" y2="519.8"/>
		<line class="st1" x1="467" y1="519.8" x2="482" y2="513.1"/>
		<line class="st1" x1="472.4" y1="565.4" x2="497.1" y2="550.1"/>
		<line class="st1" x1="450.4" y1="566.6" x2="488.9" y2="548"/>
		<line class="st1" x1="441.8" y1="562.1" x2="453.3" y2="555.3"/>
	</g>
	<g id="plant">
		<polygon class="st8" points="507.8,438.5 514.8,497.8 547.4,497.8 555.3,438.5 		"/>
		<ellipse class="st0" cx="531.5" cy="438.1" rx="23.8" ry="5.7"/>
		<g>
			<g>
				<path class="st6" d="M521.3,383.2c-5.5,7.5-6.7,17.4-3.4,26.1c1.7,4.4,4.3,7.8,7.8,10.9c5.9,5.3,9.2,11.2,8.2,19.3
					c-0.2,1.9,2.8,1.9,3,0c0.5-4.5,0-8.9-2-13c-2.5-5.1-7.2-7.8-10.6-12.2c-6.8-8.5-6.6-20.9-0.2-29.6
					C525.1,383.2,522.5,381.7,521.3,383.2L521.3,383.2z"/>
			</g>
		</g>
		<g>
			<g>
				<path class="st6" d="M535.7,429.4c-0.8-4.5-1.3-8.7,1-12.8c1.5-2.7,3.6-5,5-7.8c2.5-5,2.9-10.5,1.8-15.9
					c-0.4-1.9-3.3-1.1-2.9,0.8c0.9,4.6,0.6,9.3-1.5,13.6c-1.4,2.8-3.5,5.1-5,7.8c-2.7,4.8-2.2,9.9-1.3,15.1
					C533.2,432.1,536.1,431.3,535.7,429.4L535.7,429.4z"/>
			</g>
		</g>
		<g>
			<g>
				<path class="st6" d="M505.7,392.9c-1.7,8.9,5.9,16.4,13.2,20c1.7,0.9,3.2-1.7,1.5-2.6c-5.9-3-13.3-9.2-11.9-16.6
					C508.9,391.8,506,391,505.7,392.9L505.7,392.9z"/>
			</g>
		</g>
		<g>
			<g>
				<path class="st6" d="M535.1,387.5c-6,7.1-4.6,17.2,3.2,22.3c1.6,1.1,3.1-1.5,1.5-2.6c-6.2-4-7.4-11.9-2.6-17.5
					C538.4,388.1,536.3,386,535.1,387.5L535.1,387.5z"/>
			</g>
		</g>
		<g>
			<g>
				<path class="st6" d="M535.9,432.8c6.2-2.7,10.6-8.1,12.2-14.6c0.5-1.9-2.4-2.7-2.9-0.8c-1.4,5.8-5.3,10.4-10.8,12.8
					C532.7,431,534.2,433.6,535.9,432.8L535.9,432.8z"/>
			</g>
		</g>
		<path class="st6" d="M508.2,402.9c-1.7-1.1-4.1-3.2-5.8-6.5c-4.3-8.1-0.4-16.6,0.2-17.8c1.4,1.3,2.8,2.9,4.1,5.1
			C511.2,391.8,508.9,400.6,508.2,402.9z"/>
		<path class="st6" d="M531.3,426.6c-0.7,0.3-4.7,2.3-9.2,0.5c-4.1-1.6-6.9-5.8-7.1-10.5c2.1,0.3,5.5,1.1,9.2,3.4
			C527.8,422.2,530,424.9,531.3,426.6z"/>
		<path class="st6" d="M521.9,413.8c-0.5-1-2.3-5.1-1-10.2c1.5-5.5,5.7-8.1,6.6-8.7c0.5,1.7,1.1,4.5,0.5,8
			C527,409,523.2,412.7,521.9,413.8z"/>
		<path class="st6" d="M515.6,371.2c-1,0.2-1.1,3.4-1.2,9.9c-0.1,5.3,0.3,7.8,1.7,10c0.7,1.1,1.5,2,2.1,2.5c1.3-2.6,3.3-7.4,2.4-13
			C519.8,375.7,517,370.9,515.6,371.2z"/>
		<path class="st6" d="M534,393.8c-1.1-1.5-2.2-3.6-2.9-6.3c-2.2-8.8,3-16.2,4.1-17.7c1.1,1.7,2.3,4.1,2.9,7.1
			C539.7,385.4,535.1,392.2,534,393.8z"/>
		<path class="st6" d="M542.7,396.8c-0.4-1.2-1.9-5.8,0.1-11c2.4-6.1,7.7-8.4,8.7-8.8c0.3,1.7,0.5,4,0,6.6
			C550.1,391.2,544.4,395.6,542.7,396.8z"/>
		<path class="st6" d="M551.8,404.1c-1.1-0.4-3.4-0.9-5.9-0.2c-5.6,1.5-7.5,7.3-7.7,7.9c0.4,0.2,4.1,2.4,8.2,0.6
			C549.6,411.1,551.7,407.8,551.8,404.1z"/>
		<path class="st6" d="M542,426.7c0.3-0.5,2-3.8,5.9-4.9c3.6-1,6.6,0.5,7.1,0.8c-0.4,1-1.2,2.4-2.7,3.6
			C548,429.5,542.3,426.9,542,426.7z"/>
	</g>
</g>
<g id="student">
	<g id="leg_right">
		<path class="st6" d="M314.7,516.3c4.2,1.7,8.5,3.5,12.7,5.2c18.2,23.3,39.3,52.1,35.2,55.9c-4.1,3.9-32.9-19.6-55.2-38.9
			c-0.2-2-0.3-4.5,0.2-7.2C308.7,523.9,312.5,518.8,314.7,516.3z"/>
		<path class="st9" d="M390.1,454c0.2,2.9,0.1,7.6-1.8,12.7c-5,13.7-18.4,20-23.2,21c-7.1,1.5-14.9,2.9-23.2,3.8
			c-17.9,2.1-34.1,1.9-47.9,0.7c6.6,8.3,13.3,16.6,19.9,24.9c-0.6,0.7-1.6,1.8-2.5,3.3c-2.4,3.8-3.2,7.5-4.1,11.6
			c-0.3,1.5-0.7,3.7-1,6.3c-17.9-8.7-32.5-17.1-43.7-24c-10-6.2-18.1-11.7-23.3-15.3c-2.2-1.6-11.1-7.7-22.9-16.9
			c-12.4-9.6-18.7-14.6-25.5-21.7c-6.2-6.5-10.3-12-13.7-17.8c-5.5-9.5-6.4-15.2-6.6-17.9c-0.3-3.5-0.8-8.4,1.8-13.4
			c2.8-5.3,7.4-7.8,11-9.6c2.3-1.2,9.7-4.6,24.4-4.1c9.3,0.3,16,2.1,24.6,4.4c5.6,1.5,17.6,5.1,32.3,12.1
			c6.4,3.1,14.4,7.3,23.2,13.2c4.3,2.7,8.6,5.5,13,8.2c0.2,1.1,0.6,2.8,1.6,4.5c1.5,2.7,3.4,4.2,5.5,5.7c4.1,3,6.5,4.6,11.4,6.8
			c2.8,1.2,8.5,3.6,16.8,5.2c11.1,2.2,19.9,1.9,25.9,1.6c11-0.5,17.8-2.3,19.3-2.7C384.9,456,387.9,454.9,390.1,454z"/>
		<g>
			<g>
				<path class="st8" d="M285.9,425.9c-18.3-11.9-38.6-20.6-59.9-25.6c-16.6-3.8-41.1-6.6-52.8,9.3c-5.4,7.4-3.3,16.3-0.4,24.3
					c3.4,9.3,8.9,17.7,15.7,24.8c14.9,15.7,33.4,28.8,51.1,41.1c21.1,14.7,43.4,27.7,66.5,39c0.4,0.2,0.8-0.4,0.4-0.6
					c-36.5-17.9-70.9-40-102.1-66.1c-7.5-6.2-14.9-12.6-20.9-20.3c-6.4-8.3-12.4-19.4-13-30.1c-0.7-12,9.8-19.2,20.2-21.9
					c10.3-2.7,21.3-1.6,31.6,0.6c22.5,4.7,43.9,13.8,63.1,26.2C286,426.8,286.3,426.2,285.9,425.9L285.9,425.9z"/>
			</g>
		</g>
		<g>
			<g>
				<path class="st8" d="M252.7,440.7c20.1,25.1,40.3,50.3,60.4,75.4c0.3,0.4,0.8-0.2,0.5-0.5c-20.1-25.1-40.3-50.3-60.4-75.4
					C252.9,439.8,252.4,440.3,252.7,440.7L252.7,440.7z"/>
			</g>
		</g>
		<g>
			<g>
				<path class="st8" d="M294.1,492.7c23.8,1.9,47.7,0.4,71.1-4.6c0.5-0.1,0.3-0.8-0.2-0.7c-23.3,4.9-47.2,6.4-71,4.5
					C293.6,491.9,293.6,492.7,294.1,492.7L294.1,492.7z"/>
			</g>
		</g>
		<g>
			<g>
				<path class="st8" d="M313.7,517.1c-4.2,5.4-6.5,11.6-7,18.4c0,0.5,0.7,0.5,0.8,0c0.5-6.7,2.9-12.8,6.9-18.1
					C314.6,517.1,314,516.7,313.7,517.1L313.7,517.1z"/>
			</g>
		</g>
		<g>
			<g>
				<path class="st9" d="M313.4,534.7c-0.2-1.5-0.2-2.9,0.1-4.3c0.1-0.7,1.1-5.3,2.6-3.4c0.6,0.8,0.2,2.8-0.1,3.6
					c-0.5,1.5-1.5,2.6-2.9,3.4C312.7,534.2,313.1,534.8,313.4,534.7c1.7-1,2.9-2.5,3.4-4.4c0.3-1.3,0.5-3.6-0.6-4.7
					c-1.3-1.3-2.3,0.8-2.7,1.8c-0.9,2.3-1.2,4.8-0.9,7.2C312.7,535.1,313.5,535.1,313.4,534.7L313.4,534.7z"/>
			</g>
		</g>
		<g>
			<g>
				<path class="st9" d="M312.9,534c-1.9,1.6-7.6,8.6-3.3,10.6c1.8,0.9,3.3-1.1,3.9-2.6c1-2.3,1-4.8,0.3-7.2
					c-0.1-0.5-0.9-0.3-0.7,0.2c0.5,1.6,0.6,3.2,0.3,4.9c-0.2,0.8-0.4,1.7-0.8,2.3c-0.1,0.3-0.3,0.6-0.6,0.8c-0.7,1.1-1.7,0.8-3.1-1
					c-0.2-1.4,0.9-3.3,1.7-4.4c0.8-1.2,1.7-2.2,2.8-3.1C313.8,534.3,313.2,533.7,312.9,534L312.9,534z"/>
			</g>
		</g>
		<g>
			<g>
				<path class="st9" d="M315.2,545.7c0.6-3.9,2.7-7.3,5.9-9.6c0.4-0.3,0-0.9-0.4-0.6c-3.4,2.4-5.6,5.9-6.3,10
					C314.4,546,315.2,546.2,315.2,545.7L315.2,545.7z"/>
			</g>
		</g>
		<g>
			<g>
				<path class="st9" d="M317.7,547.6c1-3.1,2.8-5.7,5.1-7.9c0.4-0.3-0.2-0.9-0.5-0.5c-2.5,2.3-4.2,5.1-5.3,8.3
					C316.9,547.8,317.6,548,317.7,547.6L317.7,547.6z"/>
			</g>
		</g>
		<g>
			<g>
				<path class="st9" d="M320.4,550.2c0.8-2.8,2.5-5.2,5-6.9c0.4-0.3,0-0.9-0.4-0.6c-2.6,1.7-4.5,4.3-5.3,7.3
					C319.6,550.5,320.3,550.6,320.4,550.2L320.4,550.2z"/>
			</g>
		</g>
		<g>
			<g>
				<path class="st9" d="M323.3,552.6c1.2-2.6,2.9-4.9,5.1-6.8c0.4-0.3-0.2-0.8-0.5-0.5c-2.2,1.9-4,4.3-5.2,6.9
					C322.4,552.7,323.1,553.1,323.3,552.6L323.3,552.6z"/>
			</g>
		</g>
		<g>
			<g>
				<path class="st9" d="M325.5,555.5c1.6-1.8,3.2-3.6,4.7-5.4c0.3-0.4-0.2-0.9-0.5-0.5c-1.6,1.8-3.2,3.6-4.7,5.4
					C324.6,555.4,325.1,555.9,325.5,555.5L325.5,555.5z"/>
			</g>
		</g>
		<g>
			<g>
				<path class="st9" d="M324.6,522.2c9,12.4,17.6,25.2,25.7,38.2c0.3,0.4,0.9,0,0.6-0.4c-8.1-13-16.7-25.8-25.7-38.2
					C325,521.4,324.3,521.8,324.6,522.2L324.6,522.2z"/>
			</g>
		</g>
	</g>
	<g id="torso_1_">
		<path class="st9" d="M279.3,301.5c3.9,23.5,6.3,42.5,7.8,55.6c1.3,11,1.6,15.7,3.1,26.3c2.4,16.6,5.3,31.1,8.1,43.1
			c1.2,5.1,2.2,9.2,3,12.1c0.8,1.4,1.6,2.8,2.4,4.2c2.6,2.3,6.5,5.6,12,8.6c12.3,6.8,24,7.7,33.1,8.4c10.2,0.7,18-0.2,21-0.7
			c12.7-1.8,22.7-5.7,29.2-8.8c1.4-6.8,2.8-13.7,4.2-20.6c8.4-40.3,17.5-79.7,27-118.4c-3.5-2.4-8.4-5.5-14.4-8.8
			c-7.6-4.2-21.8-11.7-41.9-15.8c-5.4-1.1-21.8-4.1-42.9-2c-7.3,0.7-19.1,2-33.5,7.6C289.9,295.4,283.7,298.7,279.3,301.5z"/>
		<g>
			<g>
				<path class="st8" d="M279.5,301.8c10.3-7.5,23.3-11.3,35.6-14c13.2-2.9,26.8-4.1,40.3-3.3c26.8,1.7,51,12.7,73.9,25.8
					c0.4,0.2,0.8-0.4,0.4-0.6c-23.1-13.2-47.4-24.2-74.3-25.9c-13.3-0.9-26.7,0.3-39.7,3.1c-12.6,2.7-26,6.6-36.6,14.3
					C278.7,301.4,279.1,302.1,279.5,301.8L279.5,301.8z"/>
			</g>
		</g>
		<g>
			<g>
				<path class="st8" d="M284.6,320.9c1,39.7,6.5,79.2,16.3,117.7c0.1,0.5,0.8,0.3,0.7-0.2c-9.8-38.5-15.2-77.9-16.3-117.5
					C285.3,320.5,284.6,320.5,284.6,320.9L284.6,320.9z"/>
			</g>
		</g>
		<g>
			<g>
				<path class="st8" d="M302.5,441.7c4.1,6.3,10.9,9.4,17.7,12c8.4,3.2,17.3,5.3,26.2,6.1c18,1.7,36.2-1.5,52.6-9.2
					c0.4-0.2,0.1-0.9-0.4-0.6c-15.2,7.2-32.1,10.4-48.9,9.4c-8.4-0.5-16.7-2.1-24.6-4.7c-8-2.6-17.2-6-22-13.4
					C302.9,440.9,302.3,441.3,302.5,441.7L302.5,441.7z"/>
			</g>
		</g>
		<g>
			<g>
				<path class="st8" d="M427.8,318c-10,42.5-19.5,85-28.4,127.7c-0.1,0.5,0.6,0.7,0.7,0.2c8.9-42.7,18.4-85.3,28.4-127.7
					C428.6,317.7,427.9,317.5,427.8,318L427.8,318z"/>
			</g>
		</g>
	</g>
	<g id="leg_left">
		<path class="st6" d="M310.5,513.1c-5.2,4.4-12.4,10.6-20.8,18.2c-26.4,23.8-40.7,36.7-38.6,40.2c1.8,3.1,16.4,0.4,72.5-24.8
			c2-6.9,3.9-13.8,5.9-20.7C323.1,521.7,316.8,517.4,310.5,513.1z"/>
		<path class="st9" d="M310.5,513.1c2.9-3.3,7-7.7,12.1-12.9c3.6-3.7,8.9-8.9,20.6-19.5c12.6-11.4,18.9-17.1,28.4-24.9
			c12.8-10.4,22.5-17.3,25.4-19.3c3.9-2.7,13.8-9.5,27.2-16.9c10.1-5.6,14.5-7.2,19.4-8.2c5.5-1.1,12.9-2.6,20.7,0.9
			c2.3,1,8.3,3.7,11.8,10.4c3.4,6.3,2.6,12.4,2.1,15.7c-0.4,2.7-1.7,9.3-9.9,19.5c-5,6.2-11.3,12.2-23.1,20
			c-7.7,5.1-15.7,9.6-29.2,16c-6,2.8-21.1,9.9-46.1,19.2c-10.4,3.9-24.4,8.8-41,14c-0.5-1.6-2.2-6.3-6.9-10
			C317.2,513.5,312.2,513.2,310.5,513.1z"/>
		<g>
			<g>
				<path class="st8" d="M310.9,512.1c35.9-35,72.8-71.7,118-94.6c11.6-5.9,25.7-10.2,37.9-3.6c13.6,7.4,13.6,24.3,6.6,36.3
					c-12.2,21-37.2,34-58.5,43.9c-27.9,12.9-56.9,23.7-86.2,32.8c-0.5,0.1-0.3,0.9,0.2,0.7c28.3-8.8,56.2-19.2,83.2-31.4
					c22.4-10.1,49-23.5,61.9-45.6c5.1-8.8,7.1-20.3,1.6-29.4c-5.2-8.7-16-12.1-25.7-11.3c-12.7,1-24.5,8.2-35.2,14.6
					c-11.6,7-22.7,14.7-33.5,23c-25.2,19.5-48.1,41.8-70.9,64C310,511.9,310.6,512.4,310.9,512.1L310.9,512.1z"/>
			</g>
		</g>
		<g>
			<g>
				<path class="st8" d="M310.5,513.5c7.8,0.5,14.4,5.7,16.9,13.1c0.2,0.5,0.9,0.3,0.7-0.2c-2.6-7.7-9.5-13.1-17.6-13.6
					C310,512.7,310,513.5,310.5,513.5L310.5,513.5z"/>
			</g>
		</g>
		<g>
			<g>
				<path class="st9" d="M306.6,521.9c-0.7-6.1-8.6-7-12.1-2.6c-1.2,1.4-1.7,3.5-0.1,4.9c2.1,1.8,5.9,0.3,8-0.8
					c0.3-0.2,1.5-1.1,1.8-0.8c0.3,0.2-0.3,2.6-0.4,3.2c-0.2,1.7-0.6,3.6,0.1,5.3c0.6,1.5,2.1,2.7,3.8,2.2c5.3-1.5,4-11.1-1.5-11.3
					c-0.5,0-0.5,0.7,0,0.8c4.2,0.2,4.8,5,3.2,8c-1.5,2.7-5.1,1-5.1-1.9c0-2.4,0.5-4.8,0.8-7.2c0-0.3-0.3-0.5-0.6-0.3
					c-1.3,1-2.7,1.8-4.2,2.3c-0.6,0.2-1.3,0.4-1.9,0.5c-1.7,0.7-2.5,0-2.3-2.2c-1.3-1.6-1.1-2.8,0.7-3.4c1.1-0.6,2.2-1,3.5-1.1
					c2.8-0.1,5.3,1.7,5.6,4.7C305.9,522.3,306.7,522.3,306.6,521.9L306.6,521.9z"/>
			</g>
		</g>
		<g>
			<g>
				<path class="st9" d="M290.4,528.3c2.9,0.7,5.2,2.6,6.6,5.3c0.2,0.4,0.9,0.1,0.6-0.4c-1.4-2.8-4-4.8-7-5.6
					C290.1,527.4,289.9,528.2,290.4,528.3L290.4,528.3z"/>
			</g>
		</g>
		<g>
			<g>
				<path class="st9" d="M285.7,532.4c2.8,0.8,5.1,2.8,6.3,5.5c0.2,0.4,0.9,0.2,0.7-0.2c-1.2-3-3.7-5.1-6.8-6
					C285.4,531.6,285.2,532.3,285.7,532.4L285.7,532.4z"/>
			</g>
		</g>
		<g>
			<g>
				<path class="st9" d="M280.6,537.3c3.4-0.4,6.5,2,7,5.3c0.1,0.5,0.8,0.3,0.7-0.2c-0.6-3.7-4.1-6.3-7.7-5.9
					C280.1,536.6,280.1,537.3,280.6,537.3L280.6,537.3z"/>
			</g>
		</g>
		<g>
			<g>
				<path class="st9" d="M275.7,542.7c2.7,0.7,6.4,1.8,6.2,5.3c0,0.5,0.7,0.5,0.8,0c0.2-3.8-3.8-5.2-6.8-6
					C275.5,541.9,275.3,542.6,275.7,542.7L275.7,542.7z"/>
			</g>
		</g>
		<g>
			<g>
				<path class="st9" d="M270.6,546c2.2,0.8,4.2,1.8,6.1,3.2c0.4,0.3,0.8-0.4,0.4-0.6c-2-1.4-4.1-2.4-6.3-3.2
					C270.3,545.1,270.1,545.8,270.6,546L270.6,546z"/>
			</g>
		</g>
		<g>
			<g>
				<path class="st9" d="M277,564c15-5.8,29.7-12.2,44.2-19.2c0.4-0.2,0.1-0.9-0.4-0.6c-14.4,6.9-29.1,13.3-44,19.1
					C276.4,563.4,276.6,564.2,277,564L277,564z"/>
			</g>
		</g>
	</g>
	<g id="hand_right">
		<path class="st9" d="M305.1,387.3c0.9,2.9,2.1,6.6,3.2,10.9c0.3,1.3,1.3,5,2.5,10.2c1.2,5.2,2.7,13,4.1,22.9
			c0.9,1.6,1.6,2.3,1.9,2.2c0.4-0.1,0.4-1.5,0-4.1c-0.7-5.9-1.6-10.6-2.3-13.8c-1.3-5.8-1.7-5.8-2.5-10.7c-0.8-4.6-0.9-7.2-2.2-12.1
			c-0.6-2.3-1.2-4.1-1.6-5.3C307.1,387.4,306.1,387.3,305.1,387.3z"/>
		<path class="st9" d="M308.3,406.8c-1.2,0.4-2.8,1-4.3,2.1c-4.3,3.2-5.3,8.1-5.5,9.5c0.8,1.2,2,2.7,3.9,4.2c2,1.6,4,2.5,5.4,3
			c1.3-0.9,2.7-1.8,4-2.9c1.7-1.3,3.3-2.6,4.8-3.9c-0.2-1.4-0.6-3.6-1.9-5.9C312.6,409.4,309.7,407.6,308.3,406.8z"/>
		<path class="st9" d="M279.3,301.5c-1.1,1.6-2.4,3.7-4,6.3c-3.9,6.1-6.7,10.8-7.3,11.7c-2,3.4-6.1,10.1-10.8,19
			c-5,9.4-8.2,16.4-11.6,24c0,0-3.6,7.9-7.9,20.3c-2.4,6.8-2.9,9-2.4,11.8c1.3,7.8,8.8,12.6,10.8,13.9c2.6,1.7,4.6,2.4,11,4.3
			c12.9,3.9,19.3,5.9,25.1,7c5.5,1.1,12.2,2.2,20.1,2.9c-1.4-1.3-2.8-2.5-4.1-3.8c1.1-2.5,2.3-4.9,3.4-7.4
			c-2.8-4.1-5.7-8.1-8.5-12.2c-4.5-6.5-9.1-12.9-13.6-19.3c1.4-3.2,3.6-8.2,6.6-14.3c6.1-12.7,8.5-16.4,12.2-25.1
			c5-12,7.6-18,6.2-22.7C301.1,306.2,283.3,302.3,279.3,301.5z"/>
		<g>
			<g>
				<path class="st8" d="M277,304.3c-8.9,13.9-17.4,28.1-24.7,42.8c-3.3,6.6-6.3,13.3-9.2,20.1c-3,7.2-6.4,14.8-7.8,22.5
					c-2.4,13,7.7,18.3,18.3,22.2c15.3,5.7,31.2,9.4,47.4,11.4c0.5,0.1,0.5-0.7,0-0.8c-14.9-1.8-29.5-5.1-43.7-10.1
					c-6.1-2.1-13.6-4.2-18.2-9.2c-6-6.6-2.8-15.7-0.2-23c9.6-26.7,23.4-51.7,38.7-75.5C277.9,304.2,277.3,303.9,277,304.3L277,304.3
					z"/>
			</g>
		</g>
		<g>
			<g>
				<path class="st8" d="M293.7,348.3c-4.8,10.4-9.7,20.7-14.5,31.1c-0.2,0.4,0.4,0.8,0.6,0.4c4.8-10.4,9.7-20.7,14.5-31.1
					C294.6,348.2,293.9,347.8,293.7,348.3L293.7,348.3z"/>
			</g>
		</g>
		<g>
			<g>
				<path class="st8" d="M280.5,381.4c6.2,10.2,13.1,19.9,20.7,29.1c0.3,0.4,0.8-0.2,0.5-0.5c-7.6-9.1-14.4-18.8-20.6-29
					C280.9,380.6,280.2,381,280.5,381.4L280.5,381.4z"/>
			</g>
		</g>
		<g>
			<g>
				<path class="st8" d="M298.8,418.6c1.3-5.1,4.6-10.8,10.3-11.5c0.5-0.1,0.5-0.8,0-0.8c-6.1,0.7-9.6,6.6-11.1,12.1
					C297.9,418.8,298.7,419,298.8,418.6L298.8,418.6z"/>
			</g>
		</g>
		<g>
			<g>
				<path class="st8" d="M310.5,408c3,3.1,4.9,6.8,5.7,11c0.1,0.5,0.8,0.3,0.7-0.2c-0.8-4.3-2.8-8.2-5.9-11.3
					C310.7,407.1,310.2,407.7,310.5,408L310.5,408z"/>
			</g>
		</g>
		<g>
			<g>
				<path class="st8" d="M310.5,412.4c1.7,2.1,2.8,4.6,3.1,7.4c0.1,0.5,0.8,0.5,0.8,0c-0.4-2.9-1.5-5.6-3.4-7.9
					C310.7,411.5,310.2,412,310.5,412.4L310.5,412.4z"/>
			</g>
		</g>
		<g>
			<g>
				<path class="st8" d="M298.6,418.9c2.1,3.4,5.2,5.8,9,7.1c0.5,0.2,0.7-0.6,0.2-0.7c-3.6-1.2-6.5-3.6-8.6-6.7
					C299,418.1,298.3,418.5,298.6,418.9L298.6,418.9z"/>
			</g>
		</g>
		<g>
			<g>
				<path class="st8" d="M303.7,419.3c2.3,1.2,4.2,2.9,5.6,5.1c0.3,0.4,0.9,0,0.6-0.4c-1.5-2.3-3.4-4.1-5.8-5.3
					C303.7,418.4,303.3,419.1,303.7,419.3L303.7,419.3z"/>
			</g>
		</g>
		<g>
			<g>
				<path class="st8" d="M305.9,416.3c2.8,1.3,4.7,3.7,5.4,6.6c0.1,0.5,0.8,0.3,0.7-0.2c-0.7-3.1-2.8-5.7-5.8-7.1
					C305.9,415.4,305.5,416,305.9,416.3L305.9,416.3z"/>
			</g>
		</g>
		<g>
			<g>
				<path class="st8" d="M304.7,387.4c2.2,6.9,4.1,13.9,5.7,21c0.1,0.5,0.8,0.3,0.7-0.2c-1.6-7.1-3.5-14.1-5.7-21
					C305.3,386.7,304.6,386.9,304.7,387.4L304.7,387.4z"/>
			</g>
		</g>
		<g>
			<g>
				<path class="st8" d="M306,387.5c2.8-1.4,4.3,10.4,4.5,11.5c0.7,3.6,1.4,7.2,2.1,10.7c0.1,0.5,0.8,0.3,0.7-0.2
					c-1.3-6.5-2-13.4-3.8-19.8c-0.6-2-1.5-4-3.8-2.9C305.1,387.1,305.5,387.7,306,387.5L306,387.5z"/>
			</g>
		</g>
		<g>
			<g>
				<path class="st8" d="M313.1,422.9c0.7,2.3,1.2,4.7,1.6,7.1c0.1,0.5,0.8,0.3,0.7-0.2c-0.4-2.4-0.9-4.8-1.6-7.1
					C313.7,422.2,312.9,422.4,313.1,422.9L313.1,422.9z"/>
			</g>
		</g>
		<g>
			<g>
				<path class="st8" d="M314.8,422.9c0.5,1.9,0.9,3.9,1.1,5.9c0,0.5,0.8,0.5,0.8,0c-0.2-2.1-0.5-4.1-1.1-6.1
					C315.4,422.2,314.6,422.4,314.8,422.9L314.8,422.9z"/>
			</g>
		</g>
		<g>
			<g>
				<path class="st8" d="M314.6,431.4c0.6,0.8,1.1,1.6,1.7,2.4c0.3,0.4,0.9,0,0.6-0.4c-0.6-0.8-1.1-1.6-1.7-2.4
					C314.9,430.6,314.3,431,314.6,431.4L314.6,431.4z"/>
			</g>
		</g>
		<g>
			<g>
				<path class="st8" d="M316.4,429.3c0,1.4,0,2.7,0,4.1c0,0.5,0.8,0.5,0.8,0c0-1.4,0-2.7,0-4.1
					C317.1,428.8,316.4,428.8,316.4,429.3L316.4,429.3z"/>
			</g>
		</g>
	</g>
	<g id="hand_left">
		<path class="st9" d="M271.5,363.3c0.2,2.6,0.5,6.8,1.1,11.9c1.8,16.1,4.3,25.7,9.5,50.8c0.9,4.3,2.2,11,3.8,19.2
			c5.5,1.9,13,4.1,22.3,5.7c8.9,1.5,15.7,1.8,23,2.1c6.6,0.2,15.3,0.3,25.5-0.4c-1.8-8.6-3.2-15.7-4.1-20.5
			c-3.9-20.5-6.4-37.7-10.1-63.3c-0.7-5.1-1.3-9.3-1.7-12.1c-9-0.8-16.8-0.8-22.8-0.6c-15.3,0.4-26.6,2.5-28.9,3
			C281.9,360.4,275.9,362,271.5,363.3z"/>
		<path class="st9" d="M359.3,403.9c-0.2-0.9-0.8-1.7-1.9-3.3c-0.4-0.6-1.7-2.5-4-4.6c-1.4-1.3-3.7-3.2-6.9-4.8
			c-1.9-1-5.6-2.8-6.4-1.9c-0.2,0.3-0.7,1.4,3.9,6.9c-1.7,0-4.2,0.1-7.3,0.3c-6.3,0.4-10.5,0.6-15.7,1.7c-1.9,0.4-4.7,1.1-8,2.1
			c1,1.2,2.1,2.6,3.4,4c1.1,1.2,1.8,2,4.3,4.7c1.1,1.2,2.3,2.5,3.6,3.9c1.6,0.8,3.9,1.7,6.8,2.4c4.9,1.2,8.8,1,11.8,0.9
			c5-0.3,7.5-0.4,9.9-1.7C356.8,412.3,360.2,407.6,359.3,403.9z"/>
		<path class="st9" d="M430.3,311.9c-3.8,1.1-8.1,3-12.3,6c-17.4,12.5-18.9,34.7-19.2,39.1c1.4,5.3,2.8,10.7,4,16.4
			c1.7,7.3,3.1,14.4,4.4,21.3c-5,0.8-10,1.6-15.2,2.3c-12,1.6-23.5,2.8-34.6,3.6c-0.9,0.7-1.9,1.6-2.8,2.7c-3.4,4.6-2.8,10-2.6,11.6
			c1.9,1.5,4.8,3.6,8.6,5.8c1.4,0.8,6.2,3.6,17.7,7.9c12.4,4.6,21.7,6.8,24.5,7.5c5.1,1.2,9.1,2.1,14.7,2.7c4.4,0.4,9.2,0.9,15.4,0
			c4.7-0.6,9.9-1.4,15.2-5.1c2.3-1.6,4-3.3,5-4.5c0-3,0-7.1-0.2-12.1c-0.3-9.4-0.6-21.4-2.4-36.2c-0.8-6.8-2.2-17.9-5.7-31.9
			c-2.5-10-2.8-8.4-7.3-23c-0.5-1.8-1.7-5.5-4.4-9.8C432.2,314.3,431.1,312.8,430.3,311.9z"/>
		<g>
			<g>
				<path class="st8" d="M430.1,312.1c6.4,7.4,9.3,18.4,12,27.5c2.9,9.5,5,19.2,6.6,29c3.2,20,4.1,40.3,4.3,60.5
					c0,0.5,0.8,0.5,0.8,0c-0.2-20.9-1.1-41.9-4.6-62.5c-1.7-10.4-4.1-20.6-7.4-30.7c-2.6-8.2-5.4-17.8-11.1-24.4
					C430.3,311.2,429.8,311.8,430.1,312.1L430.1,312.1z"/>
			</g>
		</g>
		<g>
			<g>
				<path class="st8" d="M352.6,415.4c5.9,5.6,14.1,8.7,21.5,11.8c8.9,3.6,18,6.6,27.3,8.9c16.3,3.9,34.4,6.4,49.1-3.4
					c0.4-0.3,0-0.9-0.4-0.6c-15.1,10.1-33.8,7.1-50.3,2.9c-7.6-1.9-15-4.3-22.3-7.1c-8.3-3.2-18-6.7-24.5-12.9
					C352.8,414.6,352.3,415.1,352.6,415.4L352.6,415.4z"/>
			</g>
		</g>
		<g>
			<g>
				<path class="st8" d="M352.6,414.2c-0.9-5.1,1-10.2,5.1-13.4c0.4-0.3,0-0.9-0.4-0.6c-4.4,3.4-6.5,8.8-5.5,14.2
					C352,414.9,352.7,414.7,352.6,414.2L352.6,414.2z"/>
			</g>
		</g>
		<g>
			<g>
				<path class="st8" d="M359.1,400.5c18.4-1.7,36.8-3.6,55.1-5.7c0.5-0.1,0.5-0.8,0-0.8c-18.4,2.1-36.7,4-55.1,5.7
					C358.7,399.8,358.7,400.5,359.1,400.5L359.1,400.5z"/>
			</g>
		</g>
		<g>
			<g>
				<path class="st8" d="M398.5,357c3.3,12.4,6.1,25,8.4,37.6c0.1,0.5,0.8,0.3,0.7-0.2c-2.3-12.6-5.2-25.2-8.4-37.6
					C399.1,356.4,398.4,356.6,398.5,357L398.5,357z"/>
			</g>
		</g>
		<g>
			<g>
				<path class="st8" d="M357.7,400.5c-4.1-5.6-9.8-9.6-16.5-11.6c-0.5-0.1-0.7,0.6-0.2,0.7c6.5,1.9,12,5.8,16,11.2
					C357.4,401.2,358,400.9,357.7,400.5L357.7,400.5z"/>
			</g>
		</g>
		<g>
			<g>
				<path class="st8" d="M340,391.3c0.8,1.5,1.9,2.9,3.1,4.1c0.3,0.3,0.9-0.2,0.5-0.5c-1.2-1.2-2.2-2.5-3-4
					C340.4,390.5,339.7,390.9,340,391.3L340,391.3z"/>
			</g>
		</g>
		<g>
			<g>
				<path class="st8" d="M343,395.6c-5.4,0.9-10.9,0.6-16.4,1.3c-4.7,0.6-9.3,1.7-13.8,3.2c-0.5,0.1-0.3,0.9,0.2,0.7
					c5.3-1.7,10.7-2.9,16.3-3.4c4.6-0.5,9.3-0.3,13.9-1C343.7,396.2,343.5,395.5,343,395.6L343,395.6z"/>
			</g>
		</g>
		<g>
			<g>
				<path class="st8" d="M313.7,401.3c4.3,2.1,8.9,3.2,13.7,3.1c0.5,0,0.5-0.8,0-0.8c-4.7,0-9.1-1-13.3-3
					C313.7,400.4,313.3,401.1,313.7,401.3L313.7,401.3z"/>
			</g>
		</g>
		<g>
			<g>
				<path class="st8" d="M316.2,404.7c2.8,1.8,5.8,3.1,9,3.9c0.5,0.1,0.7-0.6,0.2-0.7c-3.2-0.8-6.1-2-8.9-3.8
					C316.2,403.8,315.8,404.4,316.2,404.7L316.2,404.7z"/>
			</g>
		</g>
		<g>
			<g>
				<path class="st8" d="M319.4,408.6c2.7,2.1,5.9,3.4,9.3,3.9c0.5,0.1,0.7-0.7,0.2-0.7c-3.4-0.5-6.4-1.8-9.1-3.8
					C319.4,407.6,319,408.3,319.4,408.6L319.4,408.6z"/>
			</g>
		</g>
		<g>
			<g>
				<path class="st8" d="M323.1,412.7c9.2,4.7,19.3,4.6,29.2,2.5c0.5-0.1,0.3-0.8-0.2-0.7c-9.7,2-19.6,2.2-28.6-2.5
					C323.1,411.8,322.7,412.5,323.1,412.7L323.1,412.7z"/>
			</g>
		</g>
		<g>
			<g>
				<path class="st8" d="M341.3,357.8c0.7,10.9,2,21.7,4.1,32.5c0.1,0.5,0.8,0.3,0.7-0.2c-2-10.7-3.4-21.4-4-32.3
					C342,357.4,341.2,357.4,341.3,357.8L341.3,357.8z"/>
			</g>
		</g>
		<g>
			<g>
				<path class="st8" d="M349.1,415.6c2.4,12.8,4.8,25.7,7.2,38.5c0.1,0.5,0.8,0.3,0.7-0.2c-2.4-12.8-4.8-25.7-7.2-38.5
					C349.8,414.9,349.1,415.1,349.1,415.6L349.1,415.6z"/>
			</g>
		</g>
		<g>
			<g>
				<path class="st8" d="M270.6,364.1c3.7,27,8.9,53.8,15.5,80.3c0.1,0.5,0.8,0.3,0.7-0.2c-6.6-26.5-11.7-53.3-15.5-80.3
					C271.3,363.4,270.6,363.6,270.6,364.1L270.6,364.1z"/>
			</g>
		</g>
		<g>
			<g>
				<path class="st8" d="M285.9,445.5c22.7,8.1,47,8.5,70.8,7.4c0.5,0,0.5-0.8,0-0.8c-23.8,1.1-48,0.7-70.6-7.4
					C285.6,444.6,285.4,445.4,285.9,445.5L285.9,445.5z"/>
			</g>
		</g>
		<g>
			<g>
				<path class="st8" d="M271.6,363.7c22.5-6.4,45.9-8.6,69.2-6.6c0.5,0,0.5-0.7,0-0.8c-23.4-2-46.8,0.3-69.4,6.7
					C271,363.1,271.2,363.8,271.6,363.7L271.6,363.7z"/>
			</g>
		</g>
	</g>
	<g id="head_1_">
		<path class="st9" d="M321.4,269.6c-0.4,1-0.8,2.4-0.8,4.1c-0.3,5.3,2.7,9.2,3.5,10.3c3.5,4.5,8.1,5.7,9.4,6
			c3.1,0.8,5.8,0.5,7.3,0.3c0.6,0.8,1.2,1.7,1.8,2.5c-0.7,0.4-1.7,1.1-2.5,2.2c-0.6,0.8-3,3.7-1.9,6.7c0.9,2.6,3.9,3.8,5.9,4
			c2.5,0.2,4.4-1,6.9-2.6c2.8-1.8,4.4-3.9,5.2-5c1.8-2.5,2.5-4.8,2.7-5.7c0.2-0.6,0.3-1.2,0.4-1.6c-2.5-2.3-5.1-4.6-7.6-6.9
			c0.5-0.7,1.2-1.8,1.8-3.3c0.4-0.8,1.8-4.2,1.9-8.9c0-1.2,0-2.9-0.3-4.9c-1.1-0.9-2.8-2.1-4.8-3.4c-4.8-3.1-7.8-4.9-11.4-4.6
			c-1.7,0.1-2.8,0.7-4.5,1.5c-3.1,1.5-4.3,3.1-8.6,6.3C324,267.8,322.6,268.8,321.4,269.6z"/>
		<path class="st8" d="M355.1,267.9c-0.7-0.8-1.8-2-3.3-3.3c-2.5-2.1-6.6-5.6-11.6-5.7c-3.3-0.1-5.7,1.5-10.7,4.6
			c-3.9,2.4-6.8,4.9-8.7,6.8c-0.1,1.1-0.2,2.3-0.2,3.4c-1.4-0.5-3.4-1.3-5.5-2.6c-1.9-1.2-5.6-3.4-8.2-7.6
			c-1.1-1.7-4.8-8.1-2.9-15.9c1.2-5,4.1-8.1,4.9-8.9c3.1-3.1,6.4-4.2,8.7-5c1.4-0.5,6.3-1.9,12.5-0.9c6.6,1.1,11.1,4.3,13.2,6
			c0.2-1.2,0.6-2.8,1.2-4.7c1.2-3.9,1.8-5.8,3.3-7.8c0.7-1,3.2-4.4,7.8-5.4c1.4-0.3,4.5-1.1,7.2,0.6c2.6,1.6,4.4,5.1,5.6,7.5
			c0.6,1.2,1.2,2.5,2.7,3.3c1.3,0.7,2.7,0.6,3.2,0.6c2.1-0.2,3.4-1.4,4.3-2c3.9-2.6,9.2-1.6,13.5-0.7c1.3,0.3,3.9,0.9,6.8,2.3
			c6.9,3.4,10.5,8.6,12.1,11c0.7,1.1,4.3,6.5,5.7,14.5c0.6,3.5,1.3,7.7-0.1,13.1c-0.8,3-2.7,8.1-7.4,12.3
			c-4.9,4.5-10.2,5.6-14.7,6.5c-8,1.7-14.4,0.6-18.7-0.1c-5.2-0.9-13.7-3-23.1-8.8C353.3,276.6,354.2,272.2,355.1,267.9z"/>
		<ellipse class="st8" cx="340.4" cy="268.1" rx="1.3" ry="1.8"/>
		<path class="st9" d="M349.5,242.1c0.7,0.5,1.4,1,2.1,1.5c4.4,3.7,6.5,8.4,7.6,11.8c0.1-0.3,1.9-5.2-1.3-9.4
			C354.8,241.9,349.9,242,349.5,242.1z"/>
		<g>
			<g>
				<path class="st8" d="M320.4,270.2c-1.4,8.8,3.4,17.3,12.1,20c8.6,2.6,17.3-1.6,21.6-9.3c0.2-0.4-0.4-0.8-0.6-0.4
					c-3.8,6.7-10.9,10.7-18.6,9.4c-9.3-1.6-15.2-10.2-13.7-19.5C321.2,269.9,320.5,269.7,320.4,270.2L320.4,270.2z"/>
			</g>
		</g>
		<g>
			<g>
				<path class="st8" d="M320.6,273.3c-16.1-3.1-23.6-27-8.8-36.6c6.3-4.1,14.7-4.8,21.8-2.7c8.9,2.7,15,10.2,18.9,18.3
					c0.2,0.4,0.9,0.1,0.6-0.4c-4.3-8.8-11.1-16.8-21-19.1c-7.6-1.7-16.5-0.5-22.6,4.6c-12.9,10.9-4.6,33.5,11,36.6
					C320.9,274.1,321.1,273.4,320.6,273.3L320.6,273.3z"/>
			</g>
		</g>
		<g>
			<g>
				<path class="st8" d="M320.7,270.6c5.3-4.3,10.5-9.1,17-11.4c0.5-0.2,0.3-0.9-0.2-0.7c-6.6,2.3-12,7.2-17.3,11.6
					C319.8,270.4,320.4,270.9,320.7,270.6L320.7,270.6z"/>
			</g>
		</g>
		<g>
			<g>
				<path class="st8" d="M337.6,259.3c5.3-0.8,10.6,3.2,14.7,6.2c0.4,0.3,0.8-0.4,0.4-0.6c-4.2-3.2-9.7-7.1-15.2-6.2
					C337,258.6,337.2,259.4,337.6,259.3L337.6,259.3z"/>
			</g>
		</g>
		<g>
			<g>
				<path class="st8" d="M331.4,267.5c-1.3,3.3-3,9.1,0.1,11.9c0.4,0.3,0.9-0.2,0.5-0.5c-2.9-2.6-1.2-8.1,0-11.2
					C332.3,267.3,331.6,267.1,331.4,267.5L331.4,267.5z"/>
			</g>
		</g>
		<g>
			<g>
				<path class="st8" d="M340.6,290.6c0.9,1.3,1.8,2.6,2.7,3.9c0.3,0.4,0.9,0,0.6-0.4c-0.9-1.3-1.8-2.6-2.7-3.9
					C341,289.9,340.4,290.2,340.6,290.6L340.6,290.6z"/>
			</g>
		</g>
		<g>
			<g>
				<path class="st8" d="M340.1,294.2c-1.5,2.5-3.2,5.6-2.1,8.7c1.1,2.9,4.1,3.6,6.9,3.1c7.4-1.3,13-7.9,14.6-15
					c0.1-0.5-0.6-0.7-0.7-0.2c-1.1,4.9-3.8,9.2-8.1,12c-2,1.3-4.6,2.5-7,2.6c-0.7-0.1-1.5-0.1-2.2-0.2c-1-1.6-2.1-3.1-3.1-4.7
					c-0.3-1.6,1.4-4.4,2.3-5.9C341,294.1,340.3,293.8,340.1,294.2L340.1,294.2z"/>
			</g>
		</g>
		<g>
			<g>
				<path class="st8" d="M343.4,238.9c0.2-8.9,11.2-25.2,21-15.5c2.5,2.5,3.2,10.1,7.3,10.5c2.2,0.2,4.8-2.2,6.9-2.8
					c4.2-1.4,8.8-1.5,13.1-0.7c7.7,1.6,14.1,6.4,18.4,12.8c9.1,13.6,9.6,33.6-6.3,42.2c-14.6,7.8-37.7,6-50.1-5.3
					c-0.4-0.3-0.9,0.2-0.5,0.5c17.6,15.9,64.6,14.8,64.2-16.3c-0.2-12.7-6.7-26.2-18.3-32.1c-5-2.5-10.8-3.6-16.4-2.9
					c-1.7,0.2-3.4,0.7-5,1.3c-1.1,0.4-2.4,1.5-3.5,1.6c-0.8-0.2-1.6-0.3-2.4-0.5c-2.1,0.3-3.2-0.7-3.3-2.9c-0.2-0.4-0.3-0.9-0.5-1.3
					c-0.6-1.3-1.2-2.5-2.1-3.6c-3.9-4.8-9.7-4.7-14.6-1.4c-5.5,3.7-8.4,9.9-8.6,16.3C342.7,239.3,343.4,239.3,343.4,238.9
					L343.4,238.9z"/>
			</g>
		</g>
		<g>
			<g>
				<path class="st8" d="M352.3,251.9c3.4,9.4,3.6,19.1,0.7,28.7c-0.1,0.5,0.6,0.7,0.7,0.2c3-9.7,2.8-19.6-0.7-29.1
					C352.9,251.3,352.1,251.5,352.3,251.9L352.3,251.9z"/>
			</g>
		</g>
	</g>
</g>
<g id="tutor">
	<g id="window">
		<path class="st10" d="M25.6,40.1c0.2,90.1,0.4,180.1,0.6,270.2c32.2,14.6,74.3,30.1,125.1,39.9c69,13.2,128.4,10.9,170.5,5.9
			c4.5-100.4,9.1-200.7,13.6-301.1C232.1,50,128.9,45.1,25.6,40.1z"/>
	</g>
	<g id="head">
		<path class="st8" d="M71.9,164.7c-0.2-2.5-0.4-6.3-0.6-10.8c-0.6-12-0.5-13.6-0.4-14.7c0.4-3.2,1.2-9.6,5.6-16
			c2.9-4.2,6.1-6.6,8.4-8.4c7.8-5.8,15.4-7.3,17.4-7.6c3.9-0.7,9-1.6,14.7,0.7c2.3,0.9,6.1,2.4,8.2,6.3c2.3,4.5,0.8,9.2,0.3,10.8
			c-0.7,2.3-2.2,5.2-6.6,9c-5.1,4.4-8.1,4.9-15.2,8.6c-5,2.7-14.1,7.6-21.5,16.6c-2.7,3.3-4.5,6.3-5.6,8.3
			C75.1,166.5,73.5,165.6,71.9,164.7z"/>
		<path class="st9" d="M119.5,132.9c0.6,1.6,1.4,4.1,1.9,7c0.6,3.6,1.3,8.5-0.9,13.8c-0.7,1.5-1.9,4.4-4.8,6.6c-3.2,2.5-6.6,3-9,3.4
			c-2.9,0.4-5.3,0.3-6.9,0.1c-1,2.1-2.4,4.5-4.2,6.9c-0.6,0.8-1.2,1.5-1.8,2.2c-5.4-2-10.8-4.1-16.2-6.1c1-3.8,2.6-6.6,3.9-8.4
			c3.4-4.9,7.7-7.5,11.2-9.6c3-1.8,2.6-1.1,8.5-4.2c5-2.6,8.6-4.9,10.5-6.1C114,137,116.6,135.1,119.5,132.9z"/>
		<g>
			<g>
				<path class="st8" d="M119.2,133.1c2.7,5.9,3.1,15.7,0.4,21.7c-3.8,8.4-13.3,9.7-21.4,8.1c-0.5-0.1-0.7,0.6-0.2,0.7
					c7.6,1.5,16.7,0.7,21.3-6.5c4.2-6.5,3.7-17.6,0.6-24.4C119.7,132.3,119,132.7,119.2,133.1L119.2,133.1z"/>
			</g>
		</g>
		<g>
			<g>
				<path class="st8" d="M99.4,163.7c-1,1.5-1.7,3.2-2.1,4.9c-0.1,0.5,0.6,0.7,0.7,0.2c0.4-1.7,1.1-3.2,2-4.7
					C100.3,163.6,99.7,163.3,99.4,163.7L99.4,163.7z"/>
			</g>
		</g>
		<g>
			<g>
				<path class="st8" d="M72.2,158.7c-1.3-10.7-2.6-22.4,2.7-32.3c4.7-8.7,14-15,23.3-17.8c8.9-2.6,26.5-3.1,27.8,9.7
					c1.3,12.7-11.7,18-20.6,23.3c-0.4,0.2,0,0.9,0.4,0.6c9.6-5.7,22-10.7,21-24c-0.7-9.8-12.9-12.7-20.9-12
					c-11,1-21.9,6.7-28.8,15.4c-8.4,10.5-7.2,24.5-5.7,37C71.5,159.2,72.2,159.2,72.2,158.7L72.2,158.7z"/>
			</g>
		</g>
		<g>
			<g>
				<path class="st8" d="M104.5,142c-10.6,5.3-21.3,11-27,21.9c-0.2,0.4,0.4,0.8,0.6,0.4c5.6-10.8,16.3-16.4,26.7-21.6
					C105.3,142.4,104.9,141.7,104.5,142L104.5,142z"/>
			</g>
		</g>
	</g>
	<g id="torso">
		<path class="st9" d="M29.1,163.8c-1.1,1.5-2.2,3-3.2,4.5c0,4.3,0,10.4,0.1,17.7c0.2,8.1,0.6,26.8,3.3,56.7
			c1.7,18.5,4.2,42.2,8.4,70c16.4,7.5,36.2,15,59.2,21c17.5,4.6,33.7,7.4,48.1,9.2c2.4-18.6,3.7-34.5,4.6-46.8
			c1-15.1,1.9-28.4,1.3-46.4c-0.2-7.2-0.5-15.6-2-26.8c-1.8-13.4-4.4-24.5-6.7-32.7c-7.6-4.7-17.9-10.3-30.7-15.2
			c-15.8-6-30.4-9.1-42.5-10.6C53.7,162.4,40.2,162.7,29.1,163.8z"/>
		<g>
			<g>
				<path class="st8" d="M29.1,164.1c39.4-3.7,79.2,5.6,112.8,26.3c0.4,0.3,0.8-0.4,0.4-0.6c-33.8-20.8-73.7-30.1-113.2-26.4
					C28.6,163.4,28.6,164.2,29.1,164.1L29.1,164.1z"/>
			</g>
		</g>
		<g>
			<g>
				<path class="st8" d="M144.2,198.7c10.9,47.5,5.7,96.4,0.4,144.2c-0.1,0.5,0.7,0.5,0.8,0c5.3-47.9,10.4-96.9-0.5-144.4
					C144.8,198,144.1,198.2,144.2,198.7L144.2,198.7z"/>
			</g>
		</g>
		<g>
			<g>
				<path class="st8" d="M25.2,169.3c0.8,48,4.8,96,12.1,143.5c0.1,0.5,0.8,0.3,0.7-0.2c-7.3-47.4-11.3-95.3-12.1-143.3
					C26,168.8,25.2,168.8,25.2,169.3L25.2,169.3z"/>
			</g>
		</g>
	</g>
	<g id="hand">
		<path class="st9" d="M200.7,209.5c-0.1-1.9,0.1-4.8,0.9-8.1c0.6-2.3,0.9-2.3,5.7-11.4c1.4-2.7,2.7-5.2,5.3-7.4
			c1.9-1.7,3.2-2,4.3-1.8c1.1,0.2,1.9,1,2.3,1.4c-0.6,1.4-1.2,2.8-1.8,4.3c-1,2.3-1.9,4.6-2.8,6.8c1.5,0.3,3.7,0.5,6.2,0.5
			c1.1,0,5.7-0.2,12.2-2.6c3.7-1.4,9.4-3.9,15.4-8.8c0.3,1.2,0.5,3.1,0.3,5.3c-0.2,2-0.8,3.6-2.7,7.4c-1.1,2.2-2.6,5-4.4,8.2
			c-1.5,1.3-3.5,3.1-6,4.9c-2.8,2.1-5.7,3.9-12.2,7.4c-9.1,4.8-13.6,7.2-15.7,6.5C202.9,220.4,201.3,212.9,200.7,209.5z"/>
		<path class="st9" d="M143.6,193.4c-2.7-1.4-7.1-3.2-12.4-3.1c-16.6,0.6-27.9,20.1-31.9,31.9c-1.7,5-4.1,14.3-2.3,26.7
			c2.6,10.1,5.4,18.6,8,25.2c6,15.6,12,26.3,17.4,35.9c1.1,2,5.8,10.1,13.2,19.5c3.5,4.4,6.2,7.3,10.2,9.9c2.8,1.8,7.5,4.8,13.9,4.8
			c4.2,0,7.4-1.2,8.3-1.5c1.8-0.7,5.3-2.5,9.9-8.1c5.1-6.2,7.4-12.2,7.9-13.3c8.8-22.2,9.1-18.3,14.4-34.4c9-27.1,13.5-55,15.3-66.5
			c-0.2-1.4-0.9-5.5-4.4-9c-4.1-4.2-9.2-4.6-10.4-4.7c-3.7,5.1-7.5,10.6-11.2,16.3c-8.2,12.7-14.9,25.1-20.4,36.6
			c-3.9-10.5-7.9-21-11.9-31.6C152.5,216.5,148.1,204.9,143.6,193.4z"/>
		<path class="st9" d="M205.4,216"/>
		<g>
			<g>
				<path class="st8" d="M143.2,193.5c8.4,22.5,16.8,45,25.2,67.6c0.2,0.4,0.9,0.3,0.7-0.2c-8.4-22.5-16.8-45-25.2-67.6
					C143.8,192.9,143.1,193.1,143.2,193.5L143.2,193.5z"/>
			</g>
		</g>
		<g>
			<g>
				<path class="st8" d="M168.6,260.3c9.8-18.4,20.5-36.2,32.2-53.3c0.3-0.4-0.4-0.8-0.6-0.4c-11.7,17.2-22.5,35-32.2,53.3
					C167.7,260.3,168.4,260.7,168.6,260.3L168.6,260.3z"/>
			</g>
		</g>
		<g>
			<g>
				<path class="st8" d="M96.5,249.1c4.5,17.4,10.9,34.3,19.3,50.2c4.3,8.2,9.1,16.1,14.4,23.7c4.3,6.2,9,12.5,15.3,16.8
					c12.6,8.6,26.1,4.7,34.3-7.4c5-7.3,8.6-15.7,12.1-23.8c3.7-8.4,7-17,9.9-25.7c6.8-20.3,11.4-41.3,13.9-62.5
					c0.1-0.5-0.7-0.5-0.8,0c-4.1,34.8-14,68.8-29.4,100.3c-3.1,6.4-6.5,13-11.8,17.8c-7.6,6.8-18,6.7-26.4,1.5
					c-7.4-4.5-12.6-11.8-17.4-18.8c-4.4-6.4-8.5-13.1-12.2-20c-9-16.5-15.8-34.1-20.4-52.3C97.1,248.5,96.4,248.7,96.5,249.1
					L96.5,249.1z"/>
			</g>
		</g>
		<g>
			<g>
				<path class="st8" d="M202.5,207.6c6,1,10.8,5.5,12.3,11.4c0.1,0.5,0.8,0.3,0.7-0.2c-1.5-6.2-6.5-10.9-12.8-11.9
					C202.3,206.8,202.1,207.6,202.5,207.6L202.5,207.6z"/>
			</g>
		</g>
		<g>
			<g>
				<path class="st8" d="M200.9,204.4c1.6-4.3,3.5-8.4,5.7-12.4c2.2-3.9,5.1-10.5,10.3-10.9c0.5,0,0.5-0.8,0-0.8
					c-4.2,0.3-6.4,3.8-8.5,7.1c-3.3,5.3-6.1,10.9-8.3,16.8C200,204.7,200.7,204.9,200.9,204.4L200.9,204.4z"/>
			</g>
		</g>
		<g>
			<g>
				<path class="st8" d="M218,183.8c-1,2.7-2,5.3-3,8c-0.2,0.5,0.6,0.6,0.7,0.2c1-2.7,2-5.3,3-8C218.9,183.6,218.2,183.4,218,183.8
					L218,183.8z"/>
			</g>
		</g>
		<g>
			<g>
				<path class="st8" d="M216,194.8c12.2,1.8,22.7-6.2,32.7-12.1c0.4-0.2,0-0.9-0.4-0.6c-9.7,5.7-20.2,13.8-32.1,12
					C215.7,194,215.5,194.7,216,194.8L216,194.8z"/>
			</g>
		</g>
		<g>
			<g>
				<path class="st8" d="M235.5,195.6c5.2-2.4,9.7-5.9,13.4-10.2c0.3-0.4-0.2-0.9-0.5-0.5c-3.7,4.3-8.1,7.7-13.2,10.1
					C234.6,195.1,235,195.8,235.5,195.6L235.5,195.6z"/>
			</g>
		</g>
		<g>
			<g>
				<path class="st8" d="M235.9,199.9c5.3-3,9.8-7.1,13.3-12.1c0.3-0.4-0.4-0.8-0.6-0.4c-3.4,4.9-7.8,8.9-13,11.8
					C235.1,199.5,235.4,200.2,235.9,199.9L235.9,199.9z"/>
			</g>
		</g>
		<g>
			<g>
				<path class="st8" d="M236.5,204c4.6-2.6,8.3-6.2,11.1-10.6c0.3-0.4-0.4-0.8-0.6-0.4c-2.7,4.4-6.3,7.9-10.8,10.4
					C235.7,203.6,236.1,204.2,236.5,204L236.5,204z"/>
			</g>
		</g>
		<g>
			<g>
				<path class="st8" d="M216.5,217.7c4.5,0.2,8.7-2.6,12.4-4.8c4.6-2.7,8.9-5.9,13-9.5c0.4-0.3-0.2-0.8-0.5-0.5
					c-3.6,3.1-7.3,6-11.4,8.5c-3.9,2.4-8.8,5.8-13.5,5.5C216,216.9,216,217.7,216.5,217.7L216.5,217.7z"/>
			</g>
		</g>
	</g>
	<g id="tab">
		<path class="st5" d="M163.5,69.3c0.8,24.3,1.5,48.7,2.3,73c37.9,2.9,75.7,5.8,113.6,8.7c0.3-26.9,0.6-53.8,0.9-80.7
			C241.3,69.9,202.4,69.6,163.5,69.3z"/>
	</g>
</g>
</svg>
