<?xml version="1.0" encoding="utf-8"?>
<!-- Generator: Adobe Illustrator 23.0.3, SVG Export Plug-In . SVG Version: 6.00 Build 0)  -->
<svg version="1.1" xmlns="http://www.w3.org/2000/svg" xmlns:xlink="http://www.w3.org/1999/xlink" x="0px" y="0px"
	 viewBox="0 0 560.1 558.5" style="enable-background:new 0 0 560.1 558.5;" xml:space="preserve">
<style type="text/css">
	.st0{fill:#5185EC;}
	.st1{fill:#FFFFFF;}
	.st2{fill:#202124;}
	.st3{fill:#FFFFFF;stroke:#202124;stroke-width:0.75;stroke-miterlimit:10;}
	.st4{fill:none;stroke:#202124;stroke-width:0.75;stroke-miterlimit:10;}
	.st5{fill:#FFFFFF;stroke:#202124;stroke-width:3;stroke-miterlimit:10;}
</style>
<g id="character">
	<g id="leg_right">
		<path class="st0" d="M302.3,464.6c8.3,1.1,16.6,2.1,24.9,3.2c52.5,43.4,60.1,55.5,57.9,58.7c-2.2,3.3-16.7,0.9-81-33.4
			C303.4,483.6,302.9,474.1,302.3,464.6z"/>
		<g>
			<g>
				<path class="st1" d="M315.5,490.8c-0.5-1.2-1-2.5-1.2-3.8c-0.2-1.4-0.4-4.5,1-5.4c2.3-1.4,2.5,3.4,2.4,4.2
					c-0.1,1.8-0.7,3.4-1.7,4.8c-0.3,0.4,0.4,0.8,0.6,0.4c1.4-2.1,2-4.5,1.7-7c-0.1-1.1-0.5-3.4-2-3.6c-1.7-0.2-2.7,2.1-3,3.4
					c-0.5,2.4,0.4,5,1.3,7.2C314.9,491.5,315.7,491.3,315.5,490.8L315.5,490.8z"/>
			</g>
		</g>
		<g>
			<g>
				<path class="st1" d="M315,491.1c-1.8,2.1-3,4.5-3.5,7.2c-0.2,1.3-0.8,4.9,0.8,5.7c1.5,0.8,2.5-1.6,2.9-2.6
					c1.3-2.8,1.8-5.8,1.5-8.8c0-0.5-0.8-0.5-0.8,0c0.2,1.8,0.1,3.6-0.3,5.4c-0.3,1.1-1.7,6.6-3.6,3.6c-0.6-0.9,0.2-3.7,0.5-4.6
					c0.6-2,1.6-3.7,2.9-5.3C315.8,491.3,315.3,490.8,315,491.1L315,491.1z"/>
			</g>
		</g>
		<g>
			<g>
				<path class="st1" d="M320,500c0.3-3.3,1.4-6.4,3.2-9.2c0.3-0.4-0.4-0.8-0.6-0.4c-1.9,2.9-3,6.2-3.3,9.6
					C319.2,500.5,320,500.5,320,500L320,500z"/>
			</g>
		</g>
		<g>
			<g>
				<path class="st1" d="M323.9,502c0.1-2.8,1.1-5.4,2.9-7.5c0.3-0.4-0.2-0.9-0.5-0.5c-1.9,2.3-3,5.1-3.1,8.1
					C323.1,502.5,323.9,502.5,323.9,502L323.9,502z"/>
			</g>
		</g>
		<g>
			<g>
				<path class="st1" d="M328.3,505.8c0.4-2.7,1.5-5.1,3.1-7.3c0.3-0.4-0.4-0.8-0.6-0.4c-1.6,2.2-2.7,4.7-3.1,7.4
					C327.5,506.1,328.2,506.3,328.3,505.8L328.3,505.8z"/>
			</g>
		</g>
		<g>
			<g>
				<path class="st1" d="M334.1,508.6c0.6-2.6,1.6-5,2.9-7.3c0.2-0.4-0.4-0.8-0.6-0.4c-1.4,2.4-2.4,4.9-3,7.5
					C333.3,508.8,334,509,334.1,508.6L334.1,508.6z"/>
			</g>
		</g>
		<g>
			<g>
				<path class="st1" d="M321.3,467.9c2.3,3,5.3,5.3,8.7,7c0.4,0.2,0.8-0.4,0.4-0.6c-3.4-1.6-6.3-3.9-8.6-6.8
					C321.5,467,321,467.5,321.3,467.9L321.3,467.9z"/>
			</g>
		</g>
		<g>
			<g>
				<path class="st1" d="M329.7,472.7c17.7,15.8,34.9,32,51.6,48.8c0.3,0.3,0.9-0.2,0.5-0.5c-16.7-16.8-33.9-33-51.6-48.8
					C329.8,471.8,329.3,472.3,329.7,472.7L329.7,472.7z"/>
			</g>
		</g>
		<path class="st1" d="M230.3,364.7c-5.7-2.2-14-5.2-24.2-8.4c-17.2-5.3-28.4-8.7-43.4-9.9c-12.3-1-24-1.9-37.9,3.5
			c-13.1,5.1-21.1,13.1-23.2,15.4c-2.1,2.2-7.8,8.6-12.1,18.4c-1.9,4.3-4.2,9.7-4.7,17.3c-0.6,9.5,2.1,16.6,3.4,19.8
			c2,5.2,5.8,12.3,15.2,21.1c12.8,12,26.4,18.1,37.1,22.3c11.1,4.3,29.6,10.8,60.8,16.8c25.4,4.9,45.8,6.9,69.9,9.3
			c13.6,1.4,25,2.2,33,2.8c0.9-2,1.8-4.5,2.2-7.4c1.6-9.8-2.1-17.8-4-21.1c-15.8-7.5-31.6-15-47.4-22.5c3.2,0.6,7.7,1.4,13.2,1.8
			c4.6,0.4,15.3,1.1,34.2-1.1c17-2.1,25.5-3.1,29.8-6.6c11-9,11-25.1,11-29.4c0-22.7-16.9-37.6-20.2-40.4
			C292,365.8,261.1,365.2,230.3,364.7z"/>
		<g>
			<g>
				<path class="st2" d="M226.8,363.7c-25.9-10.8-55.7-20.5-84.2-18c-25.7,2.3-47.2,18.4-55.7,43c-9,26.2,7.5,49.6,28.9,63.5
					c24.3,15.9,54.5,23.1,82.6,28.6c34.8,6.9,70.3,9.8,105.6,12.7c0.5,0,0.5-0.7,0-0.8c-29.4-2.4-58.8-4.8-87.8-9.5
					c-27.8-4.5-56.1-10.6-82-22c-23.4-10.3-50.7-30.5-49.2-59.1c1.4-27.6,25.1-50.4,51.4-54.9c15-2.5,30.5-0.7,45.2,2.6
					c15.4,3.5,30.5,8.4,45.1,14.5C227.1,364.6,227.3,363.9,226.8,363.7L226.8,363.7z"/>
			</g>
		</g>
		<g>
			<g>
				<path class="st2" d="M185.7,407.3c38.6,19.6,77.4,38.8,116.4,57.7c0.4,0.2,0.8-0.4,0.4-0.6c-39-18.8-77.8-38-116.4-57.7
					C185.6,406.4,185.2,407.1,185.7,407.3L185.7,407.3z"/>
			</g>
		</g>
		<g>
			<g>
				<path class="st2" d="M302.3,466.1c4,7.9,4.8,16.5,2.4,25c-0.1,0.5,0.6,0.7,0.7,0.2c2.4-8.7,1.6-17.5-2.5-25.6
					C302.8,465.3,302.1,465.6,302.3,466.1L302.3,466.1z"/>
			</g>
		</g>
		<g>
			<g>
				<path class="st2" d="M254.3,441.9c9.8,2.9,20.1,2.9,30.2,2.6c10.5-0.3,20.9-1.5,31.2-3.2c0.5-0.1,0.3-0.8-0.2-0.7
					c-10.3,1.8-20.6,2.9-31,3.2c-10.1,0.3-20.3,0.3-30-2.6C254,441.1,253.8,441.8,254.3,441.9L254.3,441.9z"/>
			</g>
		</g>
	</g>
	<g id="hand_left">
		<path class="st1" d="M406.2,217.5c-0.4-1.2-0.2-1.8,0.2-5.5c0,0,0.4-3.8,0.6-7.9c0.3-6.6-0.7-7.2,0.1-11.5
			c0.3-1.8,0.8-3.2,1.9-5.9c1.8-4.9,2.7-7.4,4.6-8.6c3.2-2.1,7-1,7.6-0.8c3.7,1.1,5.4,4,5.7,4.6c-0.5,0.9-1.1,2.2-1.8,3.8
			c-1.2,2.8-2.3,5.2-3,8.4c-0.4,1.7-0.7,4.1-0.6,7.1c0.5-1.3,1.5-3.6,3.6-5.5c0.6-0.6,2.3-2,2.9-1.6c0.4,0.3,0.4,1.4-1.9,7
			c-1.9,4.7-3.3,7.4-5.8,12.3c-3.7,7.4-4.1,8.6-5.7,9C411.6,223.3,407.3,220.6,406.2,217.5z"/>
		<path class="st1" d="M347.2,202c0.9,0.2,1.8,1.4,3.6,3.9c2.3,3.2,3.4,6.2,3.7,6.9c3,7.8,6.6,15.3,9.3,23.2
			c2.1,6.2,4.7,13.8,8.7,25.3c1.3-1.8,3.1-4.5,5.3-7.8c7.9-11.6,10.6-15.9,14.8-21.9c3.1-4.6,7.7-11,13.4-18.7
			c1.1-0.1,2.6-0.2,4.3,0.3c4.5,1.3,6.4,5.5,6.8,6.2c-0.7,2.3-1.7,5.6-3,9.5c-4.3,12.8-8.3,22-12.3,31
			c-10.2,23.1-10.7,19.6-14.3,29.7c-0.4,1.2-3.2,6.3-8.7,16.5c-0.5,1-1.8,3.2-4.3,4.8c-0.7,0.5-2.7,1.8-5.3,1.8
			c-3.5,0.1-6.2-2.2-7.4-3.2c-11.4-9.4-2.7,0.4-17.8-13.5c-4.6-4.3-10.1-9.5-16.3-15.7c-0.5-2.2-1.5-6.5-2.1-12
			C322.3,233.4,341.4,200.7,347.2,202z"/>
		<g>
			<g>
				<path class="st2" d="M349.6,205c5.9,8.6,9.3,19,12.9,28.6c3.6,9.8,6.9,19.7,9.8,29.6c0.1,0.5,0.9,0.3,0.7-0.2
					c-3.1-10.6-6.5-21.1-10.4-31.4c-3.4-9.1-6.7-18.9-12.3-27C350,204.2,349.3,204.6,349.6,205L349.6,205z"/>
			</g>
		</g>
		<g>
			<g>
				<path class="st2" d="M372.8,261.9c10.6-16.4,21.5-32.5,32.8-48.3c0.3-0.4-0.4-0.8-0.6-0.4c-11.3,15.9-22.3,32-32.8,48.3
					C371.9,262,372.6,262.3,372.8,261.9L372.8,261.9z"/>
			</g>
		</g>
		<g>
			<g>
				<path class="st2" d="M406,213.3c4.4-0.5,8.5,1.6,10.5,5.5c0.2,0.4,0.9,0,0.6-0.4c-2.2-4.1-6.6-6.4-11.2-5.9
					C405.5,212.6,405.5,213.4,406,213.3L406,213.3z"/>
			</g>
		</g>
		<g>
			<g>
				<path class="st2" d="M416.7,219.4c-7.4,24.9-18.6,48.3-30.2,71.5c-2.6,5.1-4.9,10.6-8.1,15.3c-3.2,4.7-7.8,7.8-13.6,4.9
					c-2.5-1.3-4.9-3.1-7.2-4.8c-10.7-7.6-20.6-16.4-29.5-26.1c-0.3-0.4-0.9,0.2-0.5,0.5c9.6,10.4,20.2,19.7,31.9,27.7
					c3.7,2.6,8.2,6,12.9,4.2c4.9-1.8,7.7-7.5,9.9-11.8c13.6-26.2,26.7-53,35.2-81.4C417.6,219.1,416.9,218.9,416.7,219.4
					L416.7,219.4z"/>
			</g>
		</g>
		<g>
			<g>
				<path class="st2" d="M406.8,212c0.7-5.6,0.1-10.9,0.3-16.4c0.3-6.3,3.6-12,6.8-17.3c0.2-0.4-0.4-0.8-0.6-0.4
					c-2.9,4.9-6,10.1-6.7,15.9c-0.8,6,0.3,12.2-0.5,18.3C406,212.5,406.8,212.5,406.8,212L406.8,212z"/>
			</g>
		</g>
		<g>
			<g>
				<path class="st2" d="M412.1,188.2c1.9-3.9,4.3-7.4,7.4-10.4c0.3-0.3-0.2-0.9-0.5-0.5c-3.1,3.1-5.6,6.7-7.5,10.6
					C411.3,188.3,411.9,188.6,412.1,188.2L412.1,188.2z"/>
			</g>
		</g>
		<g>
			<g>
				<path class="st2" d="M415.9,187.5c1.5-3.5,3.8-6.5,6.8-8.8c0.4-0.3-0.2-0.8-0.5-0.5c-3.1,2.4-5.4,5.4-7,9
					C415.1,187.6,415.8,188,415.9,187.5L415.9,187.5z"/>
			</g>
		</g>
		<g>
			<g>
				<path class="st2" d="M418.8,188.4c1.4-2.5,3-4.9,4.8-7.2c0.3-0.4-0.2-0.9-0.5-0.5c-1.9,2.3-3.5,4.7-5,7.3
					C417.9,188.4,418.6,188.8,418.8,188.4L418.8,188.4z"/>
			</g>
		</g>
		<g>
			<g>
				<path class="st2" d="M418.3,218.3c4-7.8,8.6-15.5,10.1-24.2c0.1-0.5-0.6-0.7-0.7-0.2c-1.5,8.6-6.1,16.3-10.1,24
					C417.4,218.4,418,218.8,418.3,218.3L418.3,218.3z"/>
			</g>
		</g>
		<g>
			<g>
				<path class="st2" d="M425.6,194.3c-1.5,2.2-3,4.5-4.4,6.7c-0.3,0.4,0.4,0.8,0.6,0.4c1.5-2.2,3-4.5,4.4-6.7
					C426.5,194.2,425.8,193.9,425.6,194.3L425.6,194.3z"/>
			</g>
		</g>
		<g>
			<g>
				<path class="st2" d="M421.6,201.3c0.2-6.9,2.1-13.3,5.5-19.2c0.2-0.4-0.4-0.8-0.6-0.4c-3.5,6-5.4,12.6-5.6,19.6
					C420.9,201.8,421.6,201.8,421.6,201.3L421.6,201.3z"/>
			</g>
		</g>
	</g>
	<g id="torso">
		<path class="st1" d="M195.9,204.6c1.2-0.5,3.1-1.3,5.4-2.2c7.4-2.7,13.3-3.5,16.5-3.9c17.6-2.6,18.3-3.7,32.5-5.2
			c18.5-2,36.5-3.9,59-0.8c9.7,1.3,23.1,4,38.6,9.9c0.9,2.6,2.1,6.4,2.9,11.1c1.3,7.8,1,13.9,0.8,17.4c-1.5,24.9-4.5,40.1-4.5,40.1
			c-3.4,17.5-6.5,29.4-10.3,44.5c-3,11.9-7.5,29.7-12.8,52.1c-2.6,2.2-6.4,5.2-11.5,8c-9.7,5.5-18.8,7.6-24.7,8.6
			c-7.3,1.1-13.2,0.9-16.2,0.7c-4.1-0.3-11.6-0.9-20.5-4.6c-3.1-1.3-8.3-3.5-13.9-8.2c-6.3-5.3-9.9-11.1-11.8-14.9
			c-2.2-7.2-5.6-18-9.5-31.2c-16.2-54.9-18.3-71-19.1-77.3C195.7,238.5,194.6,223.4,195.9,204.6z"/>
		<g>
			<g>
				<path class="st2" d="M198.3,203.7c24.6-6.8,49.9-10.8,75.4-11.6c24.9-0.9,51.1,0.1,74.1,10.7c0.4,0.2,0.8-0.4,0.4-0.6
					c-22.6-10.4-48.1-11.5-72.6-10.8c-26.2,0.8-52.2,4.8-77.5,11.7C197.6,203.1,197.8,203.8,198.3,203.7L198.3,203.7z"/>
			</g>
		</g>
		<g>
			<g>
				<path class="st2" d="M351.3,229c-0.2,22.9-4.8,45.4-10.1,67.6c-5.3,22-10.9,43.9-16.4,65.8c-0.1,0.5,0.6,0.7,0.7,0.2
					c5.6-22.6,11.4-45.1,16.8-67.7c5.2-21.6,9.5-43.6,9.7-65.9C352.1,228.6,351.3,228.6,351.3,229L351.3,229z"/>
			</g>
		</g>
		<g>
			<g>
				<path class="st2" d="M195.8,245.4c7.7,37.8,17.5,75.1,29.2,111.8c0.1,0.5,0.9,0.3,0.7-0.2c-11.8-36.7-21.5-74-29.2-111.8
					C196.5,244.7,195.7,244.9,195.8,245.4L195.8,245.4z"/>
			</g>
		</g>
		<g>
			<g>
				<path class="st2" d="M229,362.4c8.3,14.5,25.3,21.2,41.2,22.6c17.8,1.6,35.7-3.5,50.1-14.2c0.4-0.3,0-0.9-0.4-0.6
					c-13.4,9.9-29.9,15-46.5,14.3c-16.7-0.7-35.1-7.3-43.8-22.5C229.4,361.6,228.7,362,229,362.4L229,362.4z"/>
			</g>
		</g>
	</g>
	<g id="hand_right">
		<path class="st1" d="M171.7,208.2c0.4-1.6,0.7-3,0.8-3.9c-0.4-1.5-1-3.6-1.7-5.9c-1.6-4.8-3.2-8.4-4.2-10.6
			c-1-2.1-2.2-4.6-3.9-7.4c-3.7-5.3-5.6-9.1-6.7-11.7c-1-2.5-3-4.6-4.4-6.9c-0.4-0.6-1-1.6-2-1.7c-1,0-1.8,1.1-2,1.5
			c0.7,1.3,1.4,2.6,2,4c0.8,1.6,1.5,3.2,2.1,4.8c-0.6,0.7-1.5,1.7-2.7,2.9c-1.9,1.9-1.9,1.6-2.6,2.5c-1.3,1.8-1.1,2.7-2.7,4.5
			c-0.7,0.9-0.9,0.7-1.1,1.2c-1.1,2.1,0.7,4.9,1.1,5.5c0.9,1.4,2.1,2.3,3.1,2.9c0.2,2.3,0.8,4.1,1.3,5.3c0.4,1.1,1,2.5,2.2,4.1
			c1.1,1.5,2.4,2.5,3.2,3.2c0.6,1.7,1.2,3.7,1.7,5.9c0.5,2.2,0.8,4.2,1,6c0.5,0.2,9.5,4.3,12.8,0.9
			C170.2,214.2,170.7,212.1,171.7,208.2z"/>
		<path class="st1" d="M155,210.5c0.7,0,1.9,0.1,3.3-0.1c4.2-0.5,7.3-2.2,10.5-4c0.9-0.5,2.2-1.3,3.8-2.4c1,2.3,2,4.6,3.1,6.9
			c2.9,6.6,5.9,13,8.8,19.4c0.8-2.8,1.8-5.7,2.9-8.7c2.6-6.6,5.5-12.3,8.4-17c2.8-0.6,7-1.3,12.1-0.8c3.7,0.3,17.4,1.5,25.9,13.1
			c7.6,10.3,6,22,5.5,24.6c-1.3,1.9-3.3,4.6-5.6,7.9c-29.2,40.6-25.8,33.3-30.5,41.3c0,0-4.5,7.8-14.8,18.3c-0.6,0.6-2.7,2.8-6.1,4
			c-1.6,0.6-3.3,1.2-4.9,0.7c-2.5-0.8-3.8-3.7-5.4-8.9c-3.1-9.7-3.6-13.3-3.6-13.3c-1.2-8.1-0.2,2.5-5.1-24.8
			c-2.9-15.8-4.6-25.7-6.4-39.8C156,220.1,155.4,214.4,155,210.5z"/>
		<g>
			<g>
				<path class="st2" d="M195.6,204.5c-4.9,8.1-8.7,16.7-11.4,25.8c-0.1,0.5,0.6,0.7,0.7,0.2c2.7-9,6.5-17.5,11.3-25.6
					C196.5,204.4,195.8,204,195.6,204.5L195.6,204.5z"/>
			</g>
		</g>
		<g>
			<g>
				<path class="st2" d="M172.2,204.5c6.8,14.1,13.1,28.3,19,42.8c0.2,0.4,0.9,0.2,0.7-0.2c-5.9-14.5-12.2-28.8-19-42.9
					C172.7,203.7,172,204.1,172.2,204.5L172.2,204.5z"/>
			</g>
		</g>
		<g>
			<g>
				<path class="st2" d="M155,210.8c5.9,0.2,11.4-1.8,15.9-5.7c0.4-0.3-0.2-0.8-0.5-0.5c-4.4,3.8-9.7,5.6-15.4,5.5
					C154.6,210.1,154.6,210.8,155,210.8L155,210.8z"/>
			</g>
		</g>
		<g>
			<g>
				<path class="st2" d="M154.2,212.6c3,18.7,5.7,37.4,9,56c1.7,9.4,3.6,18.7,6,27.9c1.1,4.1,2.1,8.3,3.7,12.3
					c0.7,1.7,1.5,3.6,3.2,4.6c4.2,2.5,9.6-1.5,12.7-4.2c5.9-5.1,10.2-12.2,14.8-18.4c11.5-15.5,23-31.1,34.5-46.6
					c0.3-0.4-0.4-0.8-0.6-0.4c-9.9,13.4-19.8,26.8-29.7,40.2c-4.7,6.4-9.3,13-14.3,19.2c-2.2,2.7-4.6,5.3-7.4,7.2
					c-1.4,1-3.6,2.5-5.4,2.7c-5.6,0.8-6.5-3.2-7.7-6.8c-4.9-14.7-7.7-30.2-10.2-45.5c-2.7-16.1-5.2-32.3-7.7-48.5
					C154.9,211.9,154.1,212.1,154.2,212.6L154.2,212.6z"/>
			</g>
		</g>
		<g>
			<g>
				<path class="st2" d="M173,203.9c-3.1-8.5-5.3-21.9-14.8-25.7c-0.4-0.2-0.6,0.5-0.2,0.7c8.9,3.6,11.2,17,14.2,25.1
					C172.4,204.6,173.2,204.4,173,203.9L173,203.9z"/>
			</g>
		</g>
		<g>
			<g>
				<path class="st2" d="M156,181.1c-0.6,3.6,3.6,4.7,5.5,6.8c0.3,0.4,0.9-0.2,0.5-0.5c-1.7-1.9-5.9-3-5.4-6.1
					C156.8,180.8,156.1,180.6,156,181.1L156,181.1z"/>
			</g>
		</g>
		<g>
			<g>
				<path class="st2" d="M163.3,180.7c-2.5-4.8-5.2-9.5-8.1-14.1c-1.5-2.3-3-6.5-6.1-6.8c-0.5-0.1-0.5,0.7,0,0.8
					c3,0.3,6.7,8.4,8.2,10.8c1.9,3.2,3.7,6.4,5.4,9.7C162.9,181.5,163.5,181.1,163.3,180.7L163.3,180.7z"/>
			</g>
		</g>
		<g>
			<g>
				<path class="st2" d="M147.3,161.9c2,3.7,4,7.3,6,11c0.2,0.4,0.9,0,0.6-0.4c-2-3.7-4-7.3-6-11C147.7,161.1,147,161.4,147.3,161.9
					L147.3,161.9z"/>
			</g>
		</g>
		<g>
			<g>
				<path class="st2" d="M150.8,171c-1.4,3.4-1,7.1,0.9,10.2c0.3,0.4,0.9,0,0.6-0.4c-1.8-3-2.1-6.4-0.8-9.6
					C151.7,170.7,151,170.5,150.8,171L150.8,171z"/>
			</g>
		</g>
		<g>
			<g>
				<path class="st2" d="M149.1,173c-4.3,0.5-1.9,8.4-0.6,10.6c0.2,0.4,0.9,0,0.6-0.4c-0.8-1.5-1.4-3.1-1.6-4.9
					c-0.1-1.3-0.3-4.4,1.6-4.6C149.5,173.7,149.5,172.9,149.1,173L149.1,173z"/>
			</g>
		</g>
		<g>
			<g>
				<path class="st2" d="M144.9,177.5c-1.3,2.4-1.2,5.1,0.1,7.4c0.2,0.4,0.9,0,0.6-0.4c-1.2-2.1-1.3-4.5-0.1-6.6
					C145.8,177.5,145.1,177.1,144.9,177.5L144.9,177.5z"/>
			</g>
		</g>
		<g>
			<g>
				<path class="st2" d="M143.8,180c-1.7,0.1-1.7,2.4-1.6,3.6c0.2,2.1,1.2,4.1,2.8,5.5c0.4,0.3,0.9-0.2,0.5-0.5
					c-1-0.9-1.8-2-2.2-3.4c-0.2-0.7-1-4.4,0.5-4.5C144.3,180.7,144.3,180,143.8,180L143.8,180z"/>
			</g>
		</g>
		<g>
			<g>
				<path class="st2" d="M147.6,192.7c-0.3,4.3,2.6,7.5,5.7,10.2c0.4,0.3,0.9-0.2,0.5-0.5c-2.9-2.5-5.8-5.5-5.5-9.6
					C148.3,192.2,147.6,192.2,147.6,192.7L147.6,192.7z"/>
			</g>
		</g>
		<g>
			<g>
				<path class="st2" d="M154,204.5c0.5,2.1,1,4.3,1.4,6.4c0.1,0.5,0.8,0.3,0.7-0.2c-0.5-2.1-1-4.3-1.4-6.4
					C154.6,203.8,153.9,204,154,204.5L154,204.5z"/>
			</g>
		</g>
	</g>
	<g id="leg_left">
		<path class="st0" d="M243.6,504.4c-2.9,8.8-5.8,17.5-8.7,26.3c71.7,21.8,109.4,29.5,112.9,23.2c3-5.3-18-20.5-62.9-45.5
			c-2.3-1.1-4.9-2.1-7.8-3C263.5,501.1,250.9,502.8,243.6,504.4z"/>
		<g>
			<g>
				<path class="st1" d="M285.3,511.9c-2.8-1.1-6-1.5-8.7,0.1c-1.8,1.1-3.7,3.5-2.6,5.7c1,2,3.9,2.3,5.8,1.8
					c2.7-0.7,4.6-2.9,5.9-5.3c0.2-0.4-0.4-0.8-0.6-0.4c-0.9,1.6-1.9,3-3.5,4c-1,0.6-2,1-3.2,1.1c-1.6,0.1-4.3-0.5-3.9-3.2
					c0.7-4.9,7.4-4.4,10.6-3.1C285.6,512.8,285.8,512.1,285.3,511.9L285.3,511.9z"/>
			</g>
		</g>
		<g>
			<g>
				<path class="st1" d="M285.9,512.8c2.1-3,5.5-5.4,9.3-5.6c1.8-0.4,2.5,0.7,2,3.3c-0.3,0.2-0.7,0.5-1,0.7
					c-0.8,0.4-1.9,0.7-2.8,0.9c-2.3,0.5-4.5,0.4-6.8,0.1c-0.5-0.1-0.7,0.6-0.2,0.7c3.2,0.5,6.6,0.5,9.6-0.7c1.7-0.7,3.5-2.5,2.3-4.4
					c-1.3-2.2-4.7-1.2-6.6-0.5c-2.7,1.1-4.8,2.9-6.5,5.2C284.9,512.8,285.6,513.2,285.9,512.8L285.9,512.8z"/>
			</g>
		</g>
		<g>
			<g>
				<path class="st1" d="M290.3,519.4c1.8-2,4.1-3.2,6.7-3.6c0.5-0.1,0.5-0.8,0-0.8c-2.8,0.3-5.4,1.6-7.3,3.8
					C289.5,519.3,290,519.8,290.3,519.4L290.3,519.4z"/>
			</g>
		</g>
		<g>
			<g>
				<path class="st1" d="M295.5,522c1.6-2.2,4.1-3.5,6.9-3.5c0.5,0,0.5-0.8,0-0.8c-3,0-5.7,1.4-7.5,3.9
					C294.5,522,295.2,522.4,295.5,522L295.5,522z"/>
			</g>
		</g>
		<g>
			<g>
				<path class="st1" d="M301.6,524.7c1.3-2.2,3.7-3.4,6.2-3.1c0.5,0.1,0.7-0.7,0.2-0.7c-2.8-0.4-5.6,0.9-7,3.4
					C300.7,524.7,301.3,525.1,301.6,524.7L301.6,524.7z"/>
			</g>
		</g>
		<g>
			<g>
				<path class="st1" d="M307.3,527.7c1.4-2.2,3.8-3.4,6.5-3.3c0.5,0,0.5-0.7,0-0.8c-2.9-0.2-5.6,1.2-7.1,3.7
					C306.4,527.8,307,528.1,307.3,527.7L307.3,527.7z"/>
			</g>
		</g>
		<g>
			<g>
				<path class="st1" d="M312.8,530.8c1.1-2.3,3.6-2.8,5.9-2.7c0.5,0,0.5-0.7,0-0.8c-2.6,0-5.4,0.6-6.6,3.1
					C312,530.9,312.6,531.3,312.8,530.8L312.8,530.8z"/>
			</g>
		</g>
		<g>
			<g>
				<path class="st1" d="M238.2,520.2c4.1,1.1,7.3,4.1,8.8,8c0.2,0.4,0.9,0.3,0.7-0.2c-1.6-4.2-5-7.3-9.3-8.5
					C237.9,519.3,237.7,520.1,238.2,520.2L238.2,520.2z"/>
			</g>
		</g>
		<g>
			<g>
				<path class="st1" d="M247,532.3c29.3,8.7,58.9,16.1,88.9,22.1c0.5,0.1,0.7-0.6,0.2-0.7c-29.9-6-59.6-13.4-88.9-22.1
					C246.7,531.4,246.5,532.2,247,532.3L247,532.3z"/>
			</g>
		</g>
		<path class="st1" d="M242.4,508c2.2-6,5.4-14,9.7-23.4c3-6.5,11.2-24,27.8-50c14.2-22.3,25-39.3,43.6-59.1
			c1.1-1.2,14.9-15.8,35.3-30.9c4.2-3.1,13.4-9.8,26.7-15c9.7-3.8,14.9-4.2,18.2-4.2c4.2,0,13.5,0.1,21.1,6.8
			c5.4,4.8,7.3,10.7,8,13.2c1.7,5.9,2.3,14.1-3.1,27.6c-6,15.1-14.7,25.4-24.4,35.7c-15.2,16.1-28.7,28.1-39.9,37.5
			c-20.3,17.1-26.2,20.4-48.1,38.7c-12.4,10.4-22.3,19.2-28.5,24.8c-4.7-2.7-8.9-3.9-11.7-4.5c-2-0.4-16.9-3.3-30.6,5.7
			c-3.4,2.2-5.8,4.6-7.2,6.2C240.4,514.2,241.4,511.1,242.4,508z"/>
		<g>
			<g>
				<path class="st2" d="M244,506.6c5.3-16.7,13.2-32.3,21.8-47.5c8.4-14.7,17.1-29.2,26.6-43.3c18.7-27.7,40.9-53.7,68.8-72.4
					c13.4-9,29.9-19.1,46.7-17.5c8.2,0.8,16.7,4.6,21.2,11.8c5.1,8.1,4.9,18.5,2.7,27.5c-4,16.1-14.7,29.7-25.5,41.9
					c-10.5,11.8-22,22.5-33.9,32.8c-26.8,23-55.7,43.5-81.5,67.7c-0.4,0.3,0.2,0.9,0.5,0.5c25.2-23.6,53.3-43.7,79.6-66
					c13.1-11.1,25.7-22.8,37-35.7c10.5-11.9,20.8-25.2,24.6-40.9c3.3-13.4,1.5-28.9-11.5-36.2c-13-7.4-28.3-3.7-40.9,2.5
					c-30.6,14.7-55.6,39.7-75.9,66.5c-12.9,17-24.1,35.1-34.9,53.5c-10.2,17.5-19.8,35.4-26,54.7C243.1,506.9,243.9,507.1,244,506.6
					L244,506.6z"/>
			</g>
		</g>
		<g>
			<g>
				<path class="st2" d="M246.6,511.4c0.5,0,0.5-0.8,0-0.8C246.1,510.6,246.1,511.4,246.6,511.4L246.6,511.4z"/>
			</g>
		</g>
		<g>
			<g>
				<path class="st2" d="M247.7,510.7c13.2-4.9,28.2-8.9,40.9-0.7c0.4,0.3,0.8-0.4,0.4-0.6c-12.9-8.3-28.1-4.4-41.5,0.6
					C247,510.2,247.2,510.9,247.7,510.7L247.7,510.7z"/>
			</g>
		</g>
	</g>
	<g id="head">
		<path class="st2" d="M250.2,186.9c1.1-1.7,2.8-3.9,5.4-6.2c3.3-3,7.4-6.8,13.6-7.1c5.5-0.3,9.7,2.4,11.4,3.5
			c3.7,2.5,5.8,5.6,6.8,7.3c-0.1-1.5-0.2-3.7-0.8-6.3c-0.9-4-3.6-12.1-11.3-18.3c-2.5-2-8-6.4-16.2-6.7c-3.3-0.1-11.1,0.3-17,6.1
			c-1.3,1.3-5,5-5.5,10.7c-0.1,1.1-0.2,4.4,1.4,7.9C241.3,184.9,249.1,186.7,250.2,186.9z"/>
		<path class="st1" d="M250.4,186.1c-0.3,1.9-0.5,4.8,0,8.3c0.5,3.1,1,6.4,3.6,9.6c2.7,3.3,6.2,4.4,7.9,5c3.4,1.1,6.4,1,8.2,0.9
			c0.5,0.7,1,1.4,1.5,2.1c-0.4,0-2.3,0.2-3.5,1.8c-1.4,1.9-0.5,4.4-0.3,4.9c1.5,3.5,6.1,4,6.7,4.1c3.1,0.3,5.4-1.1,7.6-2.4
			c3.9-2.4,5.9-5.5,7.3-7.7c1.8-2.8,3.3-5.3,2.4-6.7c-0.9-1.4-4.1-1.4-7.7,0c-0.7-0.8-1.4-1.7-2.2-2.5c0.6-0.7,1.4-1.6,2.3-2.9
			c0.5-0.7,1.7-2.7,2.6-5.8c1.2-4.4,2.3-7.7,0.7-10.6c-0.7-1.2-1.6-2-2.3-2.5c-0.9-1.4-3.2-4.5-7.3-6.3c-5.9-2.7-11.4-1.1-12.8-0.7
			c-3.5,1.1-5.8,3-8.7,5.5C253.6,182.2,251.7,184.4,250.4,186.1z"/>
		<ellipse class="st2" cx="270.3" cy="184.4" rx="1.5" ry="2.5"/>
		<g>
			<g>
				<path class="st2" d="M249.8,187.1c-0.2,10.8,3.1,21.6,15.5,22.7c11.4,1,21.1-7.2,22.3-18.4c0.1-0.5-0.7-0.5-0.8,0
					c-1.2,10.8-10.6,18.7-21.6,17.7c-12-1.1-14.9-11.6-14.7-22C250.5,186.7,249.8,186.7,249.8,187.1L249.8,187.1z"/>
			</g>
		</g>
		<g>
			<g>
				<path class="st2" d="M269.7,209.9c0.8,1.2,1.7,2.4,2.5,3.7c0.3,0.4,0.9,0,0.6-0.4c-0.8-1.2-1.7-2.4-2.5-3.7
					C270.1,209.2,269.5,209.5,269.7,209.9L269.7,209.9z"/>
			</g>
		</g>
		<g>
			<g>
				<path class="st2" d="M268.4,212.7c-4.2,5.5,1.9,10.9,7.6,10.3c8-0.8,14-8.6,15.9-15.9c0.1-0.5-0.6-0.7-0.7-0.2
					c-1.3,4.8-3.9,9-7.9,12c-2.2,1.7-4.7,3-7.5,3.3c-1.9,0.2-3.4,0-5.1-1.1c-2.4-1.6-3.6-5.5-1.7-8
					C269.3,212.7,268.7,212.3,268.4,212.7L268.4,212.7z"/>
			</g>
		</g>
		<g>
			<g>
				<path class="st2" d="M260.4,183c-1.1,4-3.5,13.4,2.3,14.9c0.5,0.1,0.7-0.6,0.2-0.7c-5-1.3-2.7-10.5-1.8-13.9
					C261.2,182.8,260.5,182.6,260.4,183L260.4,183z"/>
			</g>
		</g>
		<g>
			<g>
				<path class="st2" d="M250.3,186.5c-8.7-3.6-16.4-10.1-12.5-20.5c2.8-7.3,10.2-12.2,18-12.7c17.1-1.1,30,14.8,31.1,30.7
					c0,0.5,0.8,0.5,0.8,0c-1.3-17.8-18.3-36.9-37.6-30.4c-7.1,2.4-13.4,8.7-14,16.5c-0.8,9.1,6.6,14,14.1,17.1
					C250.5,187.4,250.7,186.7,250.3,186.5L250.3,186.5z"/>
			</g>
		</g>
		<g>
			<g>
				<path class="st2" d="M250.7,186.3c4.5-5.1,9.6-10.6,16.6-12.1c8.8-1.9,14.8,3.8,19.7,10.3c0.3,0.4,0.9,0,0.6-0.4
					c-4.4-5.6-9.7-11.3-17.4-11c-8.5,0.3-14.8,6.8-20,12.7C249.8,186.2,250.3,186.7,250.7,186.3L250.7,186.3z"/>
			</g>
		</g>
	</g>
</g>
<g id="background">
	<g id="papers">
		<polygon class="st3" points="437.3,464.6 402.9,506.7 497.9,520 523.6,478.5 		"/>
		<path class="st3" d="M424.1,442.6c-1.3,1.1-27.5,40.8-27.5,40.8l91.2,17.6l28.1-41.4L424.1,442.6z"/>
		<polygon class="st3" points="469.3,421.3 443.6,456.2 535.8,478.5 559.5,440.9 		"/>
		<line class="st4" x1="545.8" y1="447.7" x2="535.9" y2="462.2"/>
		<line class="st4" x1="531.4" y1="439.2" x2="515.9" y2="461.5"/>
		<line class="st4" x1="522.4" y1="438.5" x2="513.8" y2="450.4"/>
		<line class="st4" x1="512.2" y1="434" x2="494.3" y2="459.4"/>
		<line class="st4" x1="501.6" y1="432.5" x2="482" y2="458.2"/>
		<line class="st4" x1="491.8" y1="430.6" x2="473.7" y2="454.9"/>
		<line class="st4" x1="482.7" y1="429.5" x2="468.7" y2="448"/>
		<line class="st4" x1="498.9" y1="474.5" x2="491.8" y2="488"/>
		<line class="st4" x1="487.8" y1="467.6" x2="473.5" y2="490.6"/>
		<line class="st4" x1="477.6" y1="467.6" x2="469.1" y2="483.9"/>
		<line class="st4" x1="433.9" y1="451.8" x2="416.9" y2="478.5"/>
		<line class="st4" x1="441.4" y1="460.9" x2="433.6" y2="474.5"/>
		<line class="st4" x1="458.9" y1="461.4" x2="447" y2="482.7"/>
		<line class="st4" x1="507.7" y1="488.1" x2="501.6" y2="501"/>
	</g>
	<g id="plants">
		<path class="st2" d="M64.1,465.2c7.4,29.7,14.8,59.3,22.1,89c5.8,2,14.9,4.4,26.2,4.3c10.6-0.1,19.2-2.3,24.9-4.3
			c5.9-29.1,11.9-58.3,17.8-87.4C124.7,466.2,94.4,465.7,64.1,465.2z"/>
		<ellipse class="st3" cx="109.5" cy="466.8" rx="45.5" ry="13.3"/>
		<g>
			<g>
				<path class="st0" d="M70.6,366.7c-8,15.4-14.3,38.3-2.7,53.5c12.6,16.5,37.2,25.4,39.3,48.6c0.2,1.9,3.2,1.9,3,0
					c-1.7-19.2-18.1-30-31.3-41.7c-8.6-7.6-14.4-15.4-14.1-27.3c0.3-11,3.4-21.9,8.4-31.6C74.1,366.5,71.5,365,70.6,366.7
					L70.6,366.7z"/>
			</g>
		</g>
		<g>
			<g>
				<path class="st0" d="M108.9,461.9c-1.7-8.4,0.5-16,5.3-23c3.7-5.4,7.8-10.4,9.9-16.7c4.3-12.5,1.8-26.3-0.6-38.9
					c-0.4-1.9-3.3-1.1-2.9,0.8c2.8,14.7,5.5,31-2.8,44.4c-3.3,5.3-7.6,9.9-10.1,15.7c-2.6,5.9-3,12.2-1.7,18.5
					C106.4,464.6,109.3,463.8,108.9,461.9L108.9,461.9z"/>
			</g>
		</g>
		<g>
			<g>
				<path class="st0" d="M102.6,363.5c-5.2,11.6-8.7,24.1-6.5,36.9c1,6,3.4,11.5,7,16.4c3.9,5.2,9.1,10,9.5,16.9
					c0.1,1.9,3.1,1.9,3,0c-0.5-11.1-11.4-17.7-15-27.8c-4.8-13.6-1.1-28.1,4.6-40.9C105.9,363.2,103.4,361.7,102.6,363.5
					L102.6,363.5z"/>
			</g>
		</g>
		<g>
			<g>
				<path class="st0" d="M100.7,391.3c7.5-5.2,13.1-12.3,16.2-20.9c3.7-10.2,4.6-22.7,14.6-29.1c1.6-1,0.1-3.6-1.5-2.6
					c-7.5,4.7-10.7,12.7-13,20.9c-3.4,11.7-7.3,21.8-17.7,29C97.6,389.8,99.1,392.4,100.7,391.3L100.7,391.3z"/>
			</g>
		</g>
		<g>
			<g>
				<path class="st0" d="M112.5,443.4c5.3-11.9,20.1-12.4,29.4-19.7c8.5-6.6,10.1-17.5,11.1-27.6c0.2-1.9-2.8-1.9-3,0
					c-0.6,6.1-1.3,12.4-4.1,17.9c-2.9,5.8-7.8,9.1-13.5,11.7c-8.6,3.9-18.4,6.9-22.6,16.2C109.1,443.6,111.7,445.2,112.5,443.4
					L112.5,443.4z"/>
			</g>
		</g>
		<path class="st0" d="M66.4,415.1c-2.9-0.6-5-1.7-6.4-2.8c-6.9-5.1-9.2-15.8-6.4-27.2c2.1,2.9,4.4,6.4,6.4,10.6
			C63.6,403,65.4,409.9,66.4,415.1z"/>
		<path class="st0" d="M66,382c-2.7-2.2-6.2-5.7-8.7-10.9c-7.1-14.8,0.8-30,1.9-32.2c1.8,2.7,3.5,5.8,4.9,9.5
			C69.6,362.3,67.6,375.3,66,382z"/>
		<path class="st0" d="M78.1,428.5c-2.1-2.7-4.4-6.4-5.7-11.2c-4.3-16.1,6.3-30,7.9-32.2c1.8,3.7,4.9,11.7,4.3,22.3
			C84.1,417.6,80.2,425,78.1,428.5z"/>
		<path class="st0" d="M102.6,452.2c-7.1,4.3-15.8,4-21.9-0.5c-6.3-4.8-7.1-12.3-7.2-13.6c2.8-0.4,7.1-0.7,12.1,0.8
			C96,441.8,101.3,449.9,102.6,452.2z"/>
		<path class="st0" d="M109.3,422.2c-1.3-1.8-4.2-6.2-4.3-12.5c-0.2-10.1,6.9-16.4,7.9-17.4c1.3,2.2,3.1,6,3.4,11
			C116.9,413.5,110.7,420.6,109.3,422.2z"/>
		<path class="st0" d="M124.2,396.5c-0.9-1.4-5.6-9.3-3-19.3c2.3-8.7,8.6-13.3,10.2-14.4c1.3,2.2,2.5,5,3,8.3
			C136.6,384.6,125.7,395.1,124.2,396.5z"/>
		<path class="st0" d="M107.4,462.3c0.2-2.2,1.1-7.6,5.3-12.5c6.6-7.7,16-7.9,17.6-7.9c0.1,2.9-0.5,5.2-1.1,6.8
			C124.7,460.3,108.5,462.2,107.4,462.3z"/>
		<path class="st0" d="M97.3,398.7c-4.7-2.1-7.5-4.8-9-6.8c-6.6-8.4-6.6-21.3-0.4-33.3c2.2,3.1,4.6,7.1,6.4,12.1
			C98.8,382.4,98.1,392.8,97.3,398.7z"/>
		<path class="st0" d="M111.8,438.1c-2.4-1.3-5.5-3.3-8.3-6.4c-7.2-8-7.9-17.5-7.9-20.8c3.8,3.6,8.7,9.1,12.5,17
			C109.8,431.5,111,435,111.8,438.1z"/>
		<path class="st0" d="M97.9,392.3c-1.2-5-2.9-15.2,0.7-27.2c2.3-7.8,6-13.5,8.7-17c1.1,4.4,2.6,13,0.4,23.5
			C105.4,381.6,100.7,388.7,97.9,392.3z"/>
		<path class="st0" d="M121.3,351.3c-1.7-1.6-5-5.1-6.1-10.4c-2.7-11.9,7.5-21.2,7.9-21.6c0.7,3.1,1.4,6.8,1.5,11
			C125,339.2,123.1,346.4,121.3,351.3z"/>
		<path class="st0" d="M114.9,371.1c0.3-1.3,2.5-9.6,10.8-14c6.9-3.6,13.4-2.3,15.1-1.9c-0.6,1.8-3.5,9-11.3,13.2
			C123.2,371.9,117.1,371.4,114.9,371.1z"/>
		<path class="st0" d="M135.4,425.9c-1.3-3.2-2.7-7.8-2.8-13.6c-0.3-11.6,4.9-20.1,7.2-23.5c1,2.7,1.9,6,2.3,9.8
			C143.3,411.5,138.1,421.5,135.4,425.9z"/>
		<path class="st0" d="M143.4,420.3c-1.4-2.7,5.1-9.5,11.2-12.9c7.3-4.1,14.7-3.8,18.2-3.4c-0.9,3-2.9,7.6-7.2,11.3
			C157.5,422.3,145,423.4,143.4,420.3z"/>
		<path class="st0" d="M151.1,399.8c-1.4-2.4-3.1-6.3-3.7-11.2c-1.1-9.7,3-17.1,4.5-19.7c1.5,2.1,3.3,5.1,4.2,9.1
			C158.5,388.9,152.4,397.9,151.1,399.8z"/>
	</g>
	<g id="book">
		<polygon class="st0" points="0,120.3 80.9,81 119.7,206.1 57,247.2 		"/>
		<polyline class="st3" points="87.7,89.6 122.7,204.9 81.3,244 16.9,126 85.6,90.5 		"/>
		<path class="st3" d="M102.5,302.6c2.7-4.4,5.4-8.9,8.1-13.3c-10-37.6-20-75.3-30-112.9c-2.8-2.2-7.3-5.8-12.4-10.9
			c-14.8-15.1-16.6-25.1-28.2-32.8c-4.2-2.8-11.1-6.2-21.9-7.1c8.4-3.4,15-6.6,19.4-8.8c13.9-6.9,19.8-11.2,34.2-18.4
			c6.9-3.4,12.6-5.9,16.2-7.4c-1.1-0.6-3-1.9-4.5-4.2c-1-1.5-1.5-2.9-1.8-3.9c-26.1,13.4-52.2,26.9-78.3,40.3
			c13,43.3,26.1,86.5,39.1,129.8C62.5,269.4,82.5,286,102.5,302.6z"/>
		<path class="st4" d="M14.2,129.3c2.7,1.5,6.7,3.8,11.2,7c8.5,6.1,13.7,11.7,17.4,15.5c5.4,5.5,13.5,13.1,25,21.6"/>
		<path class="st4" d="M18.6,128.4c3.2,1.1,7.9,3.1,13,6.6c6.8,4.6,10.1,9,16.1,15.5c3.8,4.1,9.5,9.8,17.2,16.3"/>
		<path class="st4" d="M32.5,131.7c1.9,1.1,4,2.5,6.2,4.2c4.8,3.8,8.1,7.9,10.4,11.3"/>
		<line class="st4" x1="14.2" y1="122.4" x2="78.8" y2="87.8"/>
		<line class="st4" x1="37.8" y1="112.6" x2="83.6" y2="89.6"/>
		<line class="st4" x1="72.5" y1="184.7" x2="99.9" y2="282.9"/>
		<line class="st4" x1="83.4" y1="202.6" x2="107.4" y2="291.3"/>
		<line class="st4" x1="75.9" y1="183.1" x2="83.4" y2="211.6"/>
		<line class="st4" x1="49.1" y1="120.3" x2="65" y2="110.7"/>
		<line class="st4" x1="51" y1="131.7" x2="88.7" y2="109.6"/>
		<line class="st4" x1="51" y1="143.5" x2="90.6" y2="120.7"/>
		<line class="st4" x1="57" y1="152" x2="93.5" y2="129.3"/>
		<line class="st4" x1="63.2" y1="159.9" x2="95.4" y2="139.5"/>
		<line class="st4" x1="71.4" y1="168.5" x2="99.9" y2="151.4"/>
		<line class="st4" x1="81.9" y1="181.2" x2="102.6" y2="166.8"/>
		<line class="st4" x1="86.5" y1="198.4" x2="108.7" y2="183.1"/>
		<line class="st4" x1="83.9" y1="188.8" x2="104.8" y2="174"/>
		<line class="st4" x1="77.3" y1="173.7" x2="99.9" y2="159.9"/>
		<line class="st4" x1="90.6" y1="213.4" x2="110.6" y2="198.4"/>
		<polygon class="st0" points="0,120.3 38.4,257 104.8,311.1 67.6,175.7 		"/>
	</g>
	<g id="picture">
		<path class="st3" d="M404.4,114.7c5.3,61.9,10.6,123.8,15.9,185.7c39.6-34.9,79.1-69.9,118.7-104.8c-2.3-53.3-4.5-106.7-6.8-160
			C489.6,61.9,447,88.3,404.4,114.7z"/>
		<g>
			<g>
				<path class="st2" d="M417.9,250.6c13.7-15.4,30.9-27.1,50.3-34.2c18.4-6.7,37.9-10.4,55-20.3c0.4-0.2,0-0.9-0.4-0.6
					c-18.6,10.8-39.9,14.1-59.6,22.1c-17.6,7.2-33.2,18.4-45.8,32.5C417.1,250.4,417.6,250.9,417.9,250.6L417.9,250.6z"/>
			</g>
		</g>
		<g>
			<g>
				<path class="st2" d="M484.1,210.9c20-14.4,28.2-39.8,48.6-53.7c0.4-0.3,0-0.9-0.4-0.6c-20.5,13.9-28.7,39.3-48.6,53.7
					C483.3,210.5,483.7,211.2,484.1,210.9L484.1,210.9z"/>
			</g>
		</g>
		<g>
			<g>
				<path class="st2" d="M414.6,217.2c-0.2-1.1-0.2-2.1,0-3.2c1.8-3.8,4-4.5,6.5-1.9c0.2,0.2,0.6,0.3,0.7-0.1
					c0.5-2.6,1.9-5.3,4.6-6.2c3.9-1.4,8.2,1.4,8,5.7c0,0.5,0.7,0.5,0.8,0c0.3-7.5-9.1-9-12.8-3.2c-0.3,0.5-1,2.6-1.3,2.6
					c0.8-0.1-2.3-1.1-1.7-0.9c-0.6-0.2-1.4-0.2-2,0c-3.3,0.7-4,4.4-3.6,7.3C413.9,217.7,414.7,217.7,414.6,217.2L414.6,217.2z"/>
			</g>
		</g>
		<g>
			<g>
				<path class="st2" d="M435.4,211.7c1.9-3.7,7.4-2,6.6,2.2c0,0.2,0.2,0.6,0.5,0.5c5-2.1,9.6,2.4,7.7,7.4c-0.2,0.5,0.6,0.6,0.7,0.2
					c0.9-2.5,0.6-5.3-1.3-7.2c-0.9-0.9-2.2-1.5-3.5-1.7c-0.4-0.1-3.1,0.4-3.2,0.3c-0.1-0.1-0.4-2.2-0.5-2.4
					c-0.5-0.9-1.3-1.7-2.4-2.1c-2.2-0.7-4.3,0.5-5.3,2.4C434.6,211.8,435.2,212.2,435.4,211.7L435.4,211.7z"/>
			</g>
		</g>
		<g>
			<g>
				<path class="st2" d="M518.1,168.1c-4.8-0.4-5.9-6.5-1.7-8.7c0.4-0.2,0-0.9-0.4-0.6c-4.9,2.5-3.4,9.6,2.1,10.1
					C518.5,168.9,518.5,168.1,518.1,168.1L518.1,168.1z"/>
			</g>
		</g>
		<g>
			<g>
				<path class="st2" d="M516.7,159c-1-1.8-1.7-3.2-1.5-5.3c0.2-2.4,0.7-2,2.3-3.3c0.3-0.3,0.9-0.2,1.2-0.6c0.6-0.7,0.2-1.8,0.2-2.6
					c-0.1-3,2.1-10.9,7.1-6.5c0.4,0.3,0.9-0.2,0.5-0.5c-3.8-3.3-8,0.8-8.4,4.9c-0.1,0.9,0.2,1.8,0,2.7c-0.2,1.4-1.1,1.6-2,2.4
					c-0.5,0.5-1,0.8-1.4,1.4c-1.6,2.6,0,5.6,1.3,7.9C516.3,159.8,516.9,159.4,516.7,159L516.7,159z"/>
			</g>
		</g>
		<g>
			<g>
				<path class="st2" d="M527.8,140.2c-0.6-2.4,1-4.6,3.2-5.5c2-0.7,4.1-0.4,6,0.1c0.5,0.1,0.7-0.6,0.2-0.7c-2.6-0.7-5.7-1-8,0.7
					c-1.8,1.3-2.7,3.4-2.1,5.6C527.2,140.8,528,140.6,527.8,140.2L527.8,140.2z"/>
			</g>
		</g>
		<g>
			<g>
				<path class="st2" d="M419.8,178.8c1.4,8.6,2.8,17.1,4.2,25.7c0.1,0.5,0.8,0.3,0.7-0.2c-1.4-8.6-2.8-17.1-4.2-25.7
					C420.4,178.1,419.7,178.3,419.8,178.8L419.8,178.8z"/>
			</g>
		</g>
		<g>
			<g>
				<path class="st2" d="M425.3,177.1c0.6,3.4,1.2,7.6,3,10.7c0.5,0.9,0.9,1.7,2.1,1.4c1.8-0.4,2.7-4,3.2-5.3
					c1.6-3.9,2.9-8,3.8-12.1c0.1-0.5-0.6-0.7-0.7-0.2c-1.1,4.7-2.5,9.3-4.5,13.7c-0.6,1.4-1.1,3.5-3.6,1c-0.6-0.5-0.8-2.2-1-2.9
					c-0.7-2.2-1.1-4.3-1.5-6.6C425.9,176.4,425.2,176.6,425.3,177.1L425.3,177.1z"/>
			</g>
		</g>
		<g>
			<g>
				<path class="st2" d="M409,172.6c0.2,4,3.6,5.3,7,4.7c1.6-0.3,2.8-0.2,4.2,0.1c1,0.2,1.6,0.5,2.6,0.3c1.9-0.3,3.3-1.5,4-3.3
					c0.2-0.4-0.5-0.8-0.6-0.4c-1.3,3.1-3.7,3.1-6.5,2.2c-1.1-0.3-0.6-0.5-1.8-0.6c-0.4,0-0.8,0.3-1.2,0.4c-1.5,1-3,1.1-4.6,0.3
					c-1.5-0.8-2.3-2.1-2.3-3.8C409.7,172.2,409,172.1,409,172.6L409,172.6z"/>
			</g>
		</g>
		<g>
			<g>
				<path class="st2" d="M409,160.4c0.9-3.3,2.4-4.6,4.7-3.9c0.7,0.1,1.4,0.3,2,0.6c0.1,0.1,0.4,0,0.4-0.2c0.7-1.6,0.7-2.9,0.7-4.6
					c-0.1-1.7-0.3-3.5,1-4.9c2.9-2.9,6.3-0.2,7.6,2.3c0.2,0.4,0.9,0,0.6-0.4c-2.2-4.1-9-5.7-10,0.2c-0.3,1.6,0.9,5.6-1.2,6.5
					c-0.1,0-2.1-0.4-2.2-0.4c-0.7,0-1.5,0.1-2.1,0.3c-2,0.8-2.8,2.7-2.2,4.7C408.4,161.1,409.1,160.9,409,160.4L409,160.4z"/>
			</g>
		</g>
		<g>
			<g>
				<path class="st2" d="M428,161.7c-1.9,1.7-3.7,4.1-2.7,6.8c1,2.6,3.3,2.6,5.6,2c1.5-0.4,2-0.7,3.7-0.2c1.8,0.5,1.7,1,3,2
					c1,0.8,2.4,1.3,3.6,1.3c2.8,0,4.7-1.9,5.7-4.4c0.2-0.5-0.6-0.6-0.7-0.2c-2.9,7.5-7,2.7-10.2,0.6c-0.4-0.2-0.7-0.4-1.1-0.5
					c-1.1-0.3-2.1,0.2-3.1,0.4c-1,0.4-2,0.6-3.1,0.8c-2.6-3.5-2.7-6.2-0.2-7.9C428.9,161.9,428.4,161.4,428,161.7L428,161.7z"/>
			</g>
		</g>
		<g>
			<g>
				<path class="st2" d="M429,160.9c-2.8-1.7-4.3-3-1.3-6.8c0.1-0.2,0.9-0.4,1-0.6c0.6-0.7,0.4-0.8,0.5-1.7
					c-0.1-0.3-0.2-0.6-0.3-0.9c-0.4-0.9-0.4-1.8-0.2-2.8c0.5-1.3,2-2.4,3.2-3c3.7-1.9,7.8-0.2,9.9,3.2c0.3,0.4,0.9,0,0.6-0.4
					c-1.7-2.8-4.7-4.7-8.1-4.3c-2.6,0.3-5.9,2.2-6.7,4.9c-0.3,1.2,0,2.2-0.2,3.5c-0.5,2.2-1.4,1.3-2.4,2.9c-1.8,2.9,1.5,5.3,3.6,6.6
					C429.1,161.8,429.4,161.1,429,160.9L429,160.9z"/>
			</g>
		</g>
		<g>
			<g>
				<path class="st2" d="M442.4,148.5c1.5-2.9,4.1-3.7,7.9-2.4c0.2,0.3,0.4,0.5,0.7,0.7c2.2,0.5,0,0.5,2.3,0.6
					c1.5,0.1,3.1-0.7,4.6-0.8c1.4-0.1,2.8,0.1,4.1,0.7c2.9,3,2.8,5.5-0.3,7.6c-0.4,0.2,0,0.9,0.4,0.6c4.9-2.9,2.8-9.1-2.5-9.6
					c-1.9-0.2-3.4,0.6-5.2,0.6c-2.5,0-3.7-1.9-5.9-2.4c-3-0.7-5.1,1.8-6.7,4C441.5,148.5,442.1,148.9,442.4,148.5L442.4,148.5z"/>
			</g>
		</g>
		<g>
			<g>
				<path class="st2" d="M445.7,169.2c3.1,4.8,9.4,5.6,11.6-0.2c0.8-2-2.1-1.7,2.1-4.1c0.5-0.3,1.4-0.3,1.9-0.5
					c1.3-0.6,2.3-1.6,2.9-2.9c1.1-2.5,0.1-5-1.8-6.7c-0.4-0.3-0.9,0.2-0.5,0.5c2.1,1.9,2.9,5,0.6,7.3c-0.8,0.9-2.2,1.1-3.3,1.5
					c-0.9,0.3-1.5,0.3-2,1.1c-0.8,1.1-0.6,2.9-1.1,4.1c-1.8,5.2-7.6,2.8-9.8-0.6C446,168.5,445.4,168.8,445.7,169.2L445.7,169.2z"/>
			</g>
		</g>
		<g>
			<g>
				<path class="st2" d="M442.9,172.4c-1.2,5.8-4.4,10.5-5,16.6c-0.6,5.9-0.7,12.3,0.4,18.1c0.1,0.5,0.8,0.3,0.7-0.2
					c-1.1-6-1-12.7-0.2-18.8c0.7-5.6,3.7-10.2,4.9-15.6C443.8,172.2,443,172,442.9,172.4L442.9,172.4z"/>
			</g>
		</g>
		<g>
			<g>
				<path class="st2" d="M490.9,94.5c-1.3-5.1-0.3-10.3,5-12.6c4.4-2,9.9,0.4,11.8,4.9c1.7,4.1,0,9.1-3.8,11.4
					c-4.2,2.5-9.7,0.7-12.3-3.2c-0.3-0.4-0.9,0-0.6,0.4c2.7,4,7.9,6,12.5,3.9c4.7-2.1,7.1-8.1,5.1-12.8c-1.9-4.6-7.6-7.2-12.3-5.5
					c-6,2.2-7.3,8.2-5.9,13.7C490.3,95.2,491,95,490.9,94.5L490.9,94.5z"/>
			</g>
		</g>
	</g>
	<g id="play_button">
		<circle class="st5" cx="338.4" cy="57.3" r="55.8"/>
		<polygon class="st0" points="319.9,33.8 319.9,84.3 376,59 		"/>
	</g>
</g>
</svg>
